<?xml version="1.0" encoding="UTF-8" standalone="no"?>
<!-- Created with Inkscape (http://www.inkscape.org/) -->

<svg
   xmlns:dc="http://purl.org/dc/elements/1.1/"
   xmlns:cc="http://creativecommons.org/ns#"
   xmlns:rdf="http://www.w3.org/1999/02/22-rdf-syntax-ns#"
   xmlns:svg="http://www.w3.org/2000/svg"
   xmlns="http://www.w3.org/2000/svg"
   xmlns:sodipodi="http://sodipodi.sourceforge.net/DTD/sodipodi-0.dtd"
   xmlns:inkscape="http://www.inkscape.org/namespaces/inkscape"
   width="60"
   height="44"
   viewBox="0 0 15.875 11.641667"
   version="1.1"
   id="svg8"
   sodipodi:docname="logo3.svg"
   inkscape:version="0.92.3 (2405546, 2018-03-11)">
  <defs
     id="defs2">
    <inkscape:perspective
       sodipodi:type="inkscape:persp3d"
       inkscape:vp_x="35.529834 : 138.34536 : 1"
       inkscape:vp_y="-394.80181 : 918.76631 : 0"
       inkscape:vp_z="228.47077 : 221.25375 : 1"
       inkscape:persp3d-origin="151.54298 : 134.32062 : 1"
       id="perspective3770" />
    <meshgradient
       inkscape:collect="always"
       id="meshgradient3940"
       gradientUnits="userSpaceOnUse"
       x="7.6141748"
       y="3.7910221">
      <meshrow
         id="meshrow4302">
        <meshpatch
           id="meshpatch4304">
          <stop
             path="c 15.7824,0  31.5648,0  47.3472,0"
             style="stop-color:#ffffff;stop-opacity:1"
             id="stop4306" />
          <stop
             path="c 0,7.41261  0,14.8252  0,22.2378"
             style="stop-color:#000000;stop-opacity:1"
             id="stop4308" />
          <stop
             path="c -15.7824,0  -37.6104,1.30186  -53.3927,1.30186"
             style="stop-color:#ffffff;stop-opacity:1"
             id="stop4310" />
          <stop
             path="c 5.91229e-005,-7.41261  6.04553,-16.1269  6.04546,-23.5397"
             style="stop-color:#000000;stop-opacity:1"
             id="stop4312" />
        </meshpatch>
      </meshrow>
    </meshgradient>
  </defs>
  <sodipodi:namedview
     id="base"
     pagecolor="#ffffff"
     bordercolor="#66df66"
     borderopacity="1"
     inkscape:pageopacity="0.0"
     inkscape:pageshadow="2"
     inkscape:zoom="14.181674"
     inkscape:cx="38.584455"
     inkscape:cy="19.165138"
     inkscape:document-units="px"
     inkscape:current-layer="layer2"
     showgrid="false"
     inkscape:snap-bbox="true"
     inkscape:measure-start="114.548,872.763"
     inkscape:measure-end="166.275,860.566"
     inkscape:window-width="1920"
     inkscape:window-height="1017"
     inkscape:window-x="-8"
     inkscape:window-y="32"
     inkscape:window-maximized="1"
     units="px"
     showguides="false" />
  <metadata
     id="metadata5">
    <rdf:RDF>
      <cc:Work
         rdf:about="">
        <dc:format>image/svg+xml</dc:format>
        <dc:type
           rdf:resource="http://purl.org/dc/dcmitype/StillImage" />
        <dc:title></dc:title>
      </cc:Work>
    </rdf:RDF>
  </metadata>
  <g
     inkscape:label="Capa 1"
     inkscape:groupmode="layer"
     id="layer1"
     transform="translate(0,-285.35833)">
    <rect
       id="rect3713"
       width="15.875"
       height="10.583333"
       x="29.482143"
       y="61.898808"
       style="stroke-width:0.26458332"
       ry="0.18520834"
       rx="0.18520834" />
  </g>
  <g
     inkscape:groupmode="layer"
     id="layer2"
     inkscape:label="Capa 2"
     transform="translate(0,-285.35833)">
    <g
       sodipodi:type="inkscape:box3d"
       id="g3772"
       inkscape:perspectiveID="#perspective3770"
       inkscape:corner0="2.4085311 : 0.33759698 : 0 : 1"
       inkscape:corner7="2.3070867 : 0.32496017 : 0.25 : 1">
      <path
         sodipodi:type="inkscape:box3dside"
         id="path3774"
         inkscape:box3dsidetype="6"
         d="m 30.462915,68.83648 1.463691,3.40624 13.430538,0.239408 -1.363672,-3.17348 z"
         points="31.926606,72.24272 45.357144,72.482128 43.993472,69.308648 30.462915,68.83648 "
         style="fill:#353564;fill-rule:evenodd;stroke:none;stroke-linejoin:round" />
      <path
         sodipodi:type="inkscape:box3dside"
         id="path3784"
         inkscape:box3dsidetype="11"
         d="m 43.993472,69.308648 0.241374,-2.548054 1.402563,3.263984 -0.280265,2.45755 z"
         points="44.234846,66.760594 45.637409,70.024578 45.357144,72.482128 43.993472,69.308648 "
         style="fill:#e9e9ff;fill-rule:evenodd;stroke:none;stroke-linejoin:round" />
      <path
         sodipodi:type="inkscape:box3dside"
         id="path3776"
         inkscape:box3dsidetype="5"
         d="m 30.462915,68.83648 -0.155427,-2.755159 13.927358,0.679273 -0.241374,2.548054 z"
         points="30.307488,66.081321 44.234846,66.760594 43.993472,69.308648 30.462915,68.83648 "
         style="fill:#4d4d9f;fill-rule:evenodd;stroke:none;stroke-linejoin:round" />
      <path
         sodipodi:type="inkscape:box3dside"
         id="path3782"
         inkscape:box3dsidetype="13"
         d="m 31.926606,72.24272 -0.110529,-2.650673 13.821332,0.432531 -0.280265,2.45755 z"
         points="31.816077,69.592047 45.637409,70.024578 45.357144,72.482128 31.926606,72.24272 "
         style="fill:#afafde;fill-rule:evenodd;stroke:none;stroke-linejoin:round" />
      <path
         sodipodi:type="inkscape:box3dside"
         id="path3780"
         inkscape:box3dsidetype="14"
         d="m 30.307488,66.081321 1.508589,3.510726 13.821332,0.432531 -1.402563,-3.263984 z"
         points="31.816077,69.592047 45.637409,70.024578 44.234846,66.760594 30.307488,66.081321 "
         style="fill:#d7d7ff;fill-rule:evenodd;stroke:none;stroke-linejoin:round"
         transform="matrix(1.0861551,0,0,0.08392423,-2.7354253,56.233283)" />
      <path
         sodipodi:type="inkscape:box3dside"
         id="path3778"
         inkscape:box3dsidetype="3"
         d="m 30.462915,68.83648 -0.155427,-2.755159 1.508589,3.510726 0.110529,2.650673 z"
         points="30.307488,66.081321 31.816077,69.592047 31.926606,72.24272 30.462915,68.83648 "
         style="fill:#8686bf;fill-rule:evenodd;stroke:none;stroke-linejoin:round" />
    </g>
    <text
       xml:space="preserve"
       style="font-style:normal;font-weight:normal;font-size:3.16677165px;line-height:1.25;font-family:sans-serif;letter-spacing:0px;word-spacing:0px;fill:#00ff00;fill-opacity:1;stroke:none;stroke-width:0.0791693"
       x="36.551083"
       y="53.535549"
       id="text3798"
       transform="scale(0.81784278,1.2227289)"><tspan
         sodipodi:role="line"
         id="tspan3796"
         x="36.551083"
         y="53.535549"
         style="fill:#00ff00;stroke-width:0.0791693">OptimizApp</tspan></text>
    <path
       sodipodi:type="star"
       style="fill:#00ff00;stroke-width:0.26458332"
       id="path3804"
       sodipodi:sides="5"
       sodipodi:cx="32.200157"
       sodipodi:cy="67.411011"
       sodipodi:r1="0.86554557"
       sodipodi:r2="1.043007"
       sodipodi:arg1="0.63274884"
       sodipodi:arg2="-1.1165741"
       inkscape:flatsided="false"
       inkscape:rounded="0"
       inkscape:randomized="0"
       d="m 32.898137,67.922863 -0.240346,-1.449101 -0.728746,1.759238 1.303905,-0.67638 -1.89833,-0.149444 1.046205,1.031075 -0.444487,-1.8516 -0.657315,1.31362 1.623622,-0.994908 -1.452448,-0.219213 z"
       inkscape:transform-center-x="0.081524879"
       inkscape:transform-center-y="-0.0011858113" />
    <path
       sodipodi:type="star"
       style="fill:#00ffff;stroke-width:0.26458332"
       id="path3810"
       sodipodi:sides="5"
       sodipodi:cx="41.320435"
       sodipodi:cy="67.550606"
       sodipodi:r1="0.67109436"
       sodipodi:r2="1.7274761"
       sodipodi:arg1="-0.5880026"
       sodipodi:arg2="3.0746762"
       inkscape:flatsided="false"
       inkscape:rounded="0"
       inkscape:randomized="0"
       d="m 41.878819,67.17835 -2.281994,0.487766 2.250196,0.300511 -1.169068,-2.019577 0.409546,2.232927 1.55947,-1.735934 -1.997083,1.079514 2.132874,0.946711 -1.643812,-1.565751 -0.241281,2.321034 z"
       inkscape:transform-center-x="0.05608291"
       inkscape:transform-center-y="-0.0083592853" />
    <text
       xml:space="preserve"
       style="font-style:normal;font-weight:normal;font-size:10.58333397px;line-height:1.25;font-family:sans-serif;letter-spacing:0px;word-spacing:0px;fill:#000000;fill-opacity:1;stroke:none;stroke-width:0.26458335"
       x="5.4442463"
       y="294.02194"
       id="text3860"><tspan
         sodipodi:role="line"
         id="tspan3858"
         x="5.4442463"
         y="303.67743"
         style="stroke-width:0.26458335" /></text>
    <rect
       style="fill:#000000;stroke-width:0.26458335"
       id="rect3866"
       width="12.563646"
       height="5.9095664"
       x="2.0008769"
       y="286.34418"
       rx="0.18520834"
       ry="2.9547832" />
    <path
       sodipodi:type="spiral"
       style="fill:#00ffff;fill-rule:evenodd;stroke:#000000;stroke-width:0.87443292"
       id="path3879"
       sodipodi:cx="26.802446"
       sodipodi:cy="297.88409"
       sodipodi:expansion="1"
       sodipodi:revolution="3"
       sodipodi:radius="6.96241"
       sodipodi:argument="-21.082567"
       sodipodi:t0="0"
       d="m 26.802446,297.88409 c -0.214639,-0.27529 0.265202,-0.42515 0.457565,-0.35674 0.521293,0.18538 0.522456,0.88263 0.255926,1.27187 -0.476761,0.69627 -1.486429,0.65974 -2.086186,0.15511 -0.880168,-0.74057 -0.802239,-2.09883 -0.05429,-2.9005 0.996904,-1.06849 2.714342,-0.94703 3.714807,0.0465 1.258983,1.2503 1.093026,3.33135 -0.147354,4.52911 -1.502267,1.45066 -3.9492,1.23972 -5.343427,-0.24817 -1.643048,-1.75343 -1.386847,-4.56758 0.348993,-6.15774 2.004097,-1.8359 5.18631,-1.53427 6.972048,0.44982 2.029069,2.25444 1.681895,5.80528 -0.550633,7.78636 -2.504559,2.22246 -6.424446,1.82966 -8.600669,-0.65146 -2.416019,-2.75451 -1.977555,-7.04374 0.752273,-9.41498"
       transform="matrix(0.22516383,0,0,0.40660566,2.428881,167.83958)" />
    <path
       sodipodi:type="spiral"
       style="fill:#0000ff;fill-rule:evenodd;stroke:#000000;stroke-width:1.11974597"
       id="path3891"
       sodipodi:cx="23.591736"
       sodipodi:cy="292.67252"
       sodipodi:expansion="1"
       sodipodi:revolution="3"
       sodipodi:radius="7.7842102"
       sodipodi:argument="-17.723692"
       sodipodi:t0="0"
       d="m 23.591736,292.67252 c 0.167979,0.35229 -0.392004,0.40023 -0.585528,0.27919 -0.524438,-0.32803 -0.357655,-1.08954 0.02715,-1.45025 0.688316,-0.64523 1.781813,-0.362 2.314967,0.33348 0.782426,1.02065 0.369976,2.48475 -0.639818,3.17969 -1.345896,0.92625 -3.191626,0.3797 -4.044407,-0.94616 -1.073138,-1.66845 -0.390377,-3.90042 1.252491,-4.90912 1.989734,-1.22167 4.610321,-0.40161 5.773847,1.55882 1.371175,2.31031 0.413195,5.3209 -1.865164,6.63857 -2.630456,1.52131 -6.031924,0.42502 -7.503287,-2.1715 -1.671856,-2.95033 -0.436997,-6.74327 2.477838,-8.36801 3.270003,-1.8227 7.45485,-0.44909 9.232726,2.78418 1.973778,3.58954 0.461288,8.1666 -3.090511,10.09744"
       transform="matrix(0.171889,0,0,0.32481637,2.4590915,193.88109)" />
    <path
       sodipodi:type="spiral"
       style="fill:#ff00ff;fill-rule:evenodd;stroke:#000000;stroke-width:0.81834739"
       id="path3893"
       sodipodi:cx="23.684799"
       sodipodi:cy="288.43811"
       sodipodi:expansion="1"
       sodipodi:revolution="3"
       sodipodi:radius="5.3792305"
       sodipodi:argument="-17.92918"
       sodipodi:t0="0"
       d="m 23.684799,288.43811 c 0.163313,0.21464 -0.208757,0.32604 -0.356746,0.27144 -0.401038,-0.14797 -0.395584,-0.68665 -0.186127,-0.98493 0.374669,-0.53356 1.154362,-0.49614 1.61311,-0.10082 0.673232,0.58015 0.60065,1.62878 0.01551,2.24129 -0.779901,0.81639 -2.105612,0.70691 -2.869474,-0.0698 -0.961243,-0.9774 -0.814069,-2.58361 0.155109,-3.49765 1.173805,-1.10703 3.062278,-0.92177 4.125839,0.24041 1.25337,1.3696 1.029797,3.54136 -0.325728,4.75403 -1.565007,1.40007 -4.020699,1.13805 -5.382203,-0.41104 -1.547028,-1.76017 -1.24646,-4.50024 0.496346,-6.01039 1.955166,-1.69415 4.979922,-1.35498 6.638568,0.58166 1.841412,2.15003 1.463589,5.45971 -0.666965,7.26675"
       transform="matrix(0.2868988,0,0,0.36435176,2.9920234,185.25954)" />
    <rect
       style="fill:#000000;stroke-width:0.26458335"
       id="rect3904"
       width="6.2818232"
       height="1.2098327"
       x="5.2581186"
       y="294.34769"
       rx="0.18520834"
       ry="1.070237" />
    <rect
       style="fill:#000000;stroke-width:0.26458335"
       id="rect3906"
       width="1.5820888"
       height="2.6523252"
       x="7.81738"
       y="292.30026"
       rx="0.18520834"
       ry="1.070237" />
    <path
       style="fill:#000000;stroke-width:1"
       d="m 8.1031268,25.505313 c -0.6489195,-3.217737 -0.6489195,-17.9730174 0,-21.1907546 L 8.2087081,3.7910221 H 31.28121 c 14.954975,0 23.093745,0.034371 23.132881,0.097694 0.136094,0.2202064 0.346427,2.3956299 0.457131,4.7279941 0.136958,2.8855378 0.07068,12.6679628 -0.09905,14.6199458 -0.117694,1.35352 -0.282385,2.572023 -0.365892,2.70714 -0.02891,0.04678 -10.435191,0.08505 -23.125068,0.08505 H 8.2087081 Z M 40.357582,24.438048 c -0.03229,-0.05224 0.102905,-0.306702 0.300425,-0.565467 0.879645,-1.152399 1.331238,-2.504851 1.413,-4.231718 0.08693,-1.835981 -0.239297,-3.124255 -1.140465,-4.503745 -1.292377,-1.978347 -3.590652,-2.700163 -5.427012,-1.704455 -0.716533,0.388519 -1.129973,0.773851 -1.618102,1.508101 -1.553316,2.336523 -1.359686,5.722136 0.429085,7.502531 0.690874,0.687639 1.347698,1.00588 2.200875,1.066354 0.808174,0.05729 1.5861,-0.210111 2.202403,-0.757032 l 0.423851,-0.376134 -0.33782,-0.564796 -0.337819,-0.564797 -0.252329,0.241627 c -0.442844,0.424064 -1.166713,0.682891 -1.72495,0.616776 -2.551759,-0.302218 -3.434627,-4.452804 -1.411882,-6.637611 0.68516,-0.740053 1.329099,-1.039842 2.243202,-1.044334 2.592863,-0.01274 4.376463,3.532081 3.387557,6.732616 -0.168982,0.546898 -0.427405,1.050794 -0.991286,1.932892 -0.112578,0.176112 -0.08243,0.278789 0.241578,0.8227 0.203616,0.341811 0.390051,0.621475 0.414301,0.621475 0.02425,0 0.01767,-0.04274 -0.01461,-0.09498 z m -7.839814,-2.31021 c 0.241717,-0.08426 0.302569,-0.151449 0.248378,-0.274234 -0.07972,-0.180638 -0.554623,-1.587134 -0.602057,-1.783096 -0.01884,-0.07783 -0.206797,-0.124652 -0.500425,-0.124652 -0.765674,0 -1.508621,-0.458959 -2.19085,-1.353407 l -0.270028,-0.354025 -0.333998,1.020842 -0.333998,1.020842 0.38443,0.456131 c 0.490721,0.582248 1.251707,1.163072 1.762478,1.345215 0.487935,0.174 1.403632,0.197132 1.83607,0.04638 z M 27.095888,21.06772 C 29.276948,18.216282 29.679141,12.139531 27.921623,8.5916838 27.428876,7.5969901 26.54815,6.6001977 25.873436,6.2735742 24.891672,5.7983102 23.829069,6.0567254 22.946539,6.9853682 20.750646,9.2960009 20.397595,15.267058 22.290531,18.080249 c 0.980195,1.456716 2.280782,1.822549 3.311583,0.931492 0.402536,-0.347966 0.397642,-0.184753 0.04605,-1.535763 l -0.110756,-0.425593 -0.335433,0.255847 c -1.609977,1.22799 -3.304257,-1.3248 -3.112661,-4.689884 0.129678,-2.277608 0.956245,-4.0345446 2.14667,-4.5629285 2.126255,-0.943762 4.154185,2.8936895 3.721712,7.0425905 -0.19331,1.854497 -0.683343,3.368167 -1.424533,4.400256 l -0.321972,0.448338 0.182349,0.798395 c 0.100292,0.439118 0.217827,0.798396 0.26119,0.798396 0.04336,0 0.241883,-0.213154 0.441154,-0.473675 z m 10.94929,-0.897491 c 0.364391,-0.719864 0.265431,-1.600605 -0.229694,-2.044285 -0.556279,-0.49848 -1.054715,-0.273013 -1.204253,0.544743 -0.10757,0.58826 -0.02839,0.647521 0.360954,0.270154 0.285613,-0.276827 0.344013,-0.299749 0.398951,-0.156585 0.0354,0.09224 0.04075,0.290371 0.0119,0.440285 -0.03553,0.184635 0.0332,0.425352 0.213065,0.746144 0.146038,0.260466 0.275589,0.47362 0.287893,0.473675 0.0123,5.6e-5 0.08484,-0.123303 0.161184,-0.274131 z m -2.638576,-1.196655 c 0.490919,-1.224946 0.939929,-3.216008 0.725253,-3.216008 -0.216822,0 -1.006459,1.027083 -1.171455,1.523716 -0.255094,0.767824 -0.21896,2.465132 0.05248,2.465132 0.0462,0 0.223372,-0.347778 0.393722,-0.77284 z m -8.099414,-5.310153 c -0.04507,-1.30172 -0.273794,-2.49303 -0.478652,-2.49303 -0.157098,0 -0.140619,2.969406 0.02324,4.18829 0.144696,1.076322 0.203741,1.13332 0.361556,0.349024 0.09719,-0.483024 0.126104,-1.112737 0.09385,-2.044284 z m -1.675929,0.935376 c 0.177895,-1.112854 -0.192046,-2.231752 -0.737882,-2.231752 -0.315774,0 -0.507764,0.3176 -0.595457,0.985034 -0.07661,0.583066 -0.04321,0.596127 0.439426,0.171855 l 0.238362,-0.209538 -0.0631,0.630689 c -0.04402,0.44 -0.01338,0.828631 0.101352,1.28537 l 0.16445,0.65468 0.179558,-0.349993 c 0.09876,-0.192496 0.221736,-0.613852 0.273288,-0.936345 z m 6.633691,0.127355 c 0.15758,-0.322669 0.173338,-0.480248 0.09972,-0.997211 l -0.08743,-0.613987 -0.270556,0.391692 c -0.222216,0.321709 -0.282327,0.36102 -0.336435,0.220017 -0.03623,-0.09442 -0.04083,-0.326048 -0.01021,-0.514725 0.04138,-0.254965 -0.02803,-0.535525 -0.270295,-1.092669 -0.17928,-0.412291 -0.350324,-0.77398 -0.380097,-0.803754 -0.02977,-0.02977 -0.132883,0.236793 -0.229133,0.59237 -0.216419,0.799513 -0.170124,2.033147 0.09582,2.553305 0.298818,0.584464 0.45671,0.710793 0.847346,0.677956 0.299531,-0.02518 0.382972,-0.08885 0.541276,-0.412994 z m 3.291037,-2.416278 c 0.32013,-0.14656 0.560517,-0.321195 0.560517,-0.4072 0,-0.425859 -0.461763,-1.885578 -0.846785,-2.6768466 C 34.468966,7.5801776 33.496021,6.782658 32.289142,6.782658 c -0.756813,0 -1.292263,0.251024 -1.883331,0.8829232 -0.703266,0.7518482 -0.701973,0.7440591 -0.287892,1.7341312 0.200385,0.4791211 0.394333,0.8715926 0.430994,0.8721586 0.03666,5.68e-4 0.165594,-0.159053 0.286515,-0.3547083 0.465034,-0.7524402 1.447212,-1.078225 2.146013,-0.7118245 0.749863,0.3931745 1.513456,1.6030068 1.759506,2.7877528 0.0655,0.315368 0.149558,0.573397 0.186803,0.573397 0.03725,0 0.319952,-0.115476 0.628237,-0.256614 z m -6.48153,-4.2657101 c 0.143552,-0.2934116 0.261005,-0.5644727 0.261005,-0.6023581 0,-0.1361022 -0.929447,-2.2559705 -0.970932,-2.2144859 -0.02334,0.023341 0.0047,0.1305566 0.06236,0.2382562 0.08338,0.155792 0.04332,0.3093171 -0.195951,0.7510926 l -0.300749,0.555275 0.428403,0.8995558 c 0.235621,0.4947557 0.434356,0.9010373 0.441631,0.902848 0.0073,0.00181 0.130681,-0.2367719 0.274234,-0.5301836 z"
       id="path3924"
       inkscape:connector-curvature="0"
       transform="matrix(0.26458334,0,0,0.26458334,0,285.35833)" />
    <path
       style="fill:#000000;stroke-width:1"
       d="M 8.1031268,25.505313 C 7.6767043,23.390851 7.4783089,15.554953 7.699787,9.5748516 7.7964052,6.966076 8.0075716,4.3339334 8.1500279,3.9626983 8.2120919,3.8009621 9.5515892,3.7910221 31.284809,3.7910221 c 14.952624,0 23.090146,0.034372 23.129282,0.097694 0.128611,0.2080979 0.344654,2.3412802 0.444583,4.3897596 0.134767,2.7626343 0.134767,10.5002853 0,13.2629193 -0.09993,2.04848 -0.315972,4.181662 -0.444583,4.38976 -0.03914,0.06332 -8.177906,0.09769 -23.132881,0.09769 H 8.2087081 Z M 41.317917,22.765062 c 1.340398,-2.763414 0.897161,-6.458716 -1.005974,-8.386908 -2.213928,-2.243076 -5.378364,-1.675531 -6.786213,1.217115 -0.665143,1.366639 -0.84379,2.759121 -0.542702,4.23014 0.318558,1.556373 1.155742,2.762618 2.31266,3.332167 0.577231,0.284169 0.76802,0.328104 1.417046,0.326319 0.858292,-0.0024 1.403831,-0.206957 2.038129,-0.764372 l 0.390633,-0.343284 -0.334325,-0.558953 -0.334324,-0.558954 -0.379647,0.324963 c -0.702953,0.601701 -1.533929,0.707861 -2.351559,0.300418 -2.051789,-1.022449 -2.414792,-4.525828 -0.664799,-6.416031 2.030419,-2.193093 5.092346,-0.82216 5.783645,2.589543 0.338506,1.670594 -0.06199,3.577816 -1.019169,4.853372 -0.235012,0.313184 -0.237062,0.331185 -0.07378,0.648188 0.09237,0.179333 0.237933,0.433388 0.323473,0.56457 l 0.155527,0.238511 0.336668,-0.388093 c 0.185169,-0.213451 0.515788,-0.757372 0.734711,-1.208711 z m -8.800149,-0.637224 c 0.243011,-0.08471 0.30241,-0.150792 0.246519,-0.274234 -0.0405,-0.08944 -0.207877,-0.555279 -0.371953,-1.035187 l -0.29832,-0.872561 -0.456855,-0.0022 c -0.769109,-0.0037 -1.469782,-0.440597 -2.161986,-1.348124 l -0.267669,-0.350931 -0.329983,1.016999 -0.329983,1.017001 0.30305,0.38263 c 0.521731,0.65874 1.38145,1.272611 2.079768,1.485029 0.381865,0.116158 1.22956,0.106316 1.587412,-0.01843 z m -5.20979,-1.399604 c 1.467036,-2.267807 2.077666,-6.085618 1.488829,-9.30854 C 28.35774,9.0165154 27.311653,7.1277647 26.004465,6.378007 25.384247,6.0222714 24.536427,5.9798562 23.900657,6.2727564 21.699072,7.2870288 20.43143,12.131727 21.39099,15.864251 c 0.745785,2.900972 2.471822,4.299288 4.019146,3.256033 0.545558,-0.367832 0.558105,-0.437637 0.268025,-1.491172 l -0.157391,-0.571623 -0.289456,0.243562 c -1.023205,0.860969 -2.194085,0.08456 -2.846844,-1.887742 -0.240766,-0.727472 -0.265414,-0.942449 -0.263514,-2.298355 0.0017,-1.213998 0.04227,-1.642626 0.215332,-2.275035 0.531294,-1.9414887 1.692582,-3.1361951 2.839352,-2.9210598 0.781473,0.1466053 1.630583,1.054536 2.154902,2.3041798 1.164719,2.775954 0.795751,7.054838 -0.799939,9.276797 -0.318243,0.443145 -0.318533,0.444694 -0.190536,1.018317 0.17836,0.799328 0.283796,1.046834 0.412152,0.967505 0.06028,-0.03726 0.310373,-0.378097 0.555759,-0.757424 z m 10.758816,-0.594009 c 0.210953,-0.40794 0.213584,-1.260087 0.0051,-1.663184 -0.501028,-0.968883 -1.45118,-0.693128 -1.455348,0.422375 l -0.0015,0.393515 0.345835,-0.335194 c 0.294204,-0.285155 0.355441,-0.310158 0.410192,-0.167481 0.0354,0.09224 0.04075,0.290371 0.0119,0.440285 -0.03553,0.184635 0.0332,0.425352 0.213066,0.746144 0.146038,0.260466 0.275589,0.47362 0.287893,0.473675 0.0123,5.6e-5 0.09456,-0.139505 0.1828,-0.310135 z m -2.610458,-1.302239 c 0.395299,-1.006498 0.850186,-3.07442 0.67629,-3.07442 -0.1467,0 -0.785656,0.750368 -1.004898,1.180117 -0.286244,0.561085 -0.415792,1.496537 -0.302793,2.186441 0.05157,0.314835 0.09402,0.593264 0.09434,0.618729 0.0022,0.17998 0.320884,-0.360434 0.537064,-0.910867 z M 27.30823,14.560911 c 0.07273,-1.440453 -0.223039,-3.490693 -0.480605,-3.331509 -0.21107,0.130449 -0.03872,4.598412 0.19177,4.971353 0.112433,0.181919 0.230777,-0.489973 0.288835,-1.639844 z m -1.681576,-0.362439 c 0.04675,-0.981282 -0.194631,-1.681441 -0.616143,-1.787234 -0.432337,-0.10851 -0.573042,0.09003 -0.706282,0.996576 l -0.07235,0.492303 0.373639,-0.284989 0.37364,-0.284989 -0.06102,0.590456 c -0.04043,0.391209 -0.0067,0.82601 0.0999,1.288504 l 0.160912,0.698049 0.204533,-0.448746 c 0.135145,-0.296508 0.217643,-0.72394 0.243176,-1.25993 z m 6.495439,0.766887 c 0.246165,-0.246165 0.327168,-0.718368 0.230601,-1.344267 l -0.07577,-0.491073 -0.245919,0.358895 c -0.135256,0.197393 -0.282063,0.336558 -0.326237,0.309256 -0.04417,-0.0273 -0.07319,-0.281943 -0.06448,-0.56587 0.01213,-0.395383 -0.06004,-0.679641 -0.308306,-1.214279 l -0.324144,-0.698048 -0.158289,0.349024 c -0.111051,0.244864 -0.159717,0.661504 -0.163071,1.396097 -0.0041,0.899683 0.0267,1.105977 0.218889,1.465539 0.34407,0.643723 0.833026,0.818423 1.216723,0.434726 z m 3.448589,-2.671329 0.555528,-0.272457 -0.0653,-0.400661 C 35.941332,10.887205 35.449506,9.4999613 35.065534,8.8133532 33.815233,6.5776083 31.809414,6.1332047 30.320696,7.7621004 c -0.590436,0.6460308 -0.596135,0.75736 -0.09531,1.861901 l 0.310015,0.6837246 0.302373,-0.4111619 c 0.166304,-0.2261393 0.453869,-0.5047925 0.639031,-0.6192292 0.407843,-0.252061 1.098216,-0.2850953 1.504638,-0.071997 0.707375,0.3708964 1.361631,1.3472671 1.687138,2.5177791 0.22335,0.803161 0.237453,0.843371 0.295792,0.843371 0.02793,0 0.300769,-0.122606 0.606311,-0.272458 z M 28.980935,6.5404568 C 28.563807,5.5694794 28.563692,5.56946 28.133695,6.3994504 l -0.188942,0.3647014 0.421121,0.9013725 0.421121,0.9013725 0.285907,-0.5734194 0.285906,-0.5734194 z M 28.450346,5.3599689 c -0.09849,-0.097753 -0.109941,-0.086299 -0.05582,0.055823 0.03745,0.098347 0.09321,0.1536924 0.123911,0.1229895 0.0307,-0.030703 6.4e-5,-0.1111686 -0.06809,-0.1788129 z"
       id="path3926"
       inkscape:connector-curvature="0"
       transform="matrix(0.26458334,0,0,0.26458334,0,285.35833)" />
    <path
       style="fill:#000000;stroke-width:1"
       d="M 8.1041616,25.505313 C 7.5067199,22.51351 7.4386039,9.3072367 7.997937,4.9105551 8.0556638,4.4567884 8.1283224,4.0192617 8.1594005,3.9382734 8.2090051,3.8090061 11.034362,3.7910221 31.293163,3.7910221 h 23.077256 l 0.08594,0.2260407 c 0.128417,0.3377632 0.293925,2.0752813 0.405922,4.2614132 0.130958,2.556234 0.128783,10.548985 -0.0036,13.262919 -0.09993,2.04848 -0.315972,4.181662 -0.444583,4.38976 -0.03913,0.06332 -8.177904,0.09769 -23.132879,0.09769 H 8.2087081 Z M 41.245109,22.887631 c 2.009611,-4.067653 0.240597,-9.193634 -3.392899,-9.831425 -1.989709,-0.349256 -3.916272,1.063326 -4.693649,3.44145 -0.33823,1.0347 -0.382864,2.746165 -0.09643,3.697503 0.423017,1.404971 1.250368,2.479913 2.305887,2.995942 0.500506,0.244691 0.719521,0.292041 1.346236,0.291045 0.840826,-0.0013 1.389702,-0.209025 2.041563,-0.772515 l 0.374473,-0.323706 -0.336772,-0.559057 -0.336772,-0.559058 -0.369834,0.319696 c -0.676406,0.584707 -1.503608,0.69799 -2.32016,0.317741 -2.047593,-0.953516 -2.450431,-4.514375 -0.724364,-6.402966 0.708666,-0.775395 1.330576,-1.077928 2.220908,-1.080379 0.541134,-0.0015 0.822461,0.05546 1.251509,0.253342 1.825344,0.841875 2.85831,3.4564 2.337314,5.915939 -0.142449,0.672476 -0.619877,1.7799 -1.033334,2.396879 l -0.200955,0.299873 0.311154,0.538938 0.311153,0.538936 0.330051,-0.390065 c 0.181527,-0.214535 0.485242,-0.704186 0.67492,-1.088113 z M 32.67204,22.04339 c 0.127584,-0.105886 0.129246,-0.160249 0.01185,-0.387374 -0.07511,-0.145311 -0.23536,-0.589543 -0.35611,-0.987181 l -0.219546,-0.722979 -0.463963,-0.0022 c -0.769631,-0.0036 -1.451463,-0.417021 -2.129584,-1.291144 -0.147622,-0.190291 -0.286882,-0.324915 -0.309466,-0.299164 -0.02258,0.02575 -0.180939,0.468186 -0.351901,0.983189 l -0.310839,0.93637 0.39441,0.47108 c 0.445569,0.532182 1.277332,1.139387 1.855477,1.354536 0.454219,0.169032 1.651896,0.133896 1.879676,-0.05514 z M 27.690627,20.011092 C 29.37593,16.689743 29.454149,11.775974 27.87246,8.5881903 27.341846,7.5187741 26.529779,6.6032537 25.830269,6.2858343 25.25187,6.023372 24.437665,6.0240907 23.893443,6.2875445 c -2.339418,1.132493 -3.5677,6.4990375 -2.331259,10.1856195 0.82957,2.473457 2.456753,3.581506 3.878149,2.640871 0.4667,-0.308848 0.488924,-0.438038 0.243459,-1.415238 l -0.161428,-0.642649 -0.295003,0.248229 c -1.064729,0.895909 -2.356206,-0.04811 -2.934674,-2.145138 -0.276996,-1.004153 -0.255357,-3.285975 0.04096,-4.318857 0.402131,-1.4017289 1.038805,-2.3646921 1.83047,-2.7685699 1.365761,-0.6967591 2.883676,0.7063968 3.532929,3.2658279 0.707932,2.790749 0.226199,6.144937 -1.176369,8.190779 l -0.294928,0.430193 0.172431,0.716601 c 0.09484,0.39413 0.195556,0.757038 0.22382,0.806462 0.08864,0.154993 0.602844,-0.552629 1.068629,-1.470583 z m 10.410545,0.0196 c 0.17698,-0.507686 0.134369,-1.289305 -0.09038,-1.657936 -0.217081,-0.356044 -0.616098,-0.560367 -0.911337,-0.466662 -0.240785,0.07642 -0.484341,0.54804 -0.484341,0.937872 0,0.368494 0.09162,0.381885 0.395998,0.05789 0.299398,-0.318695 0.401772,-0.243203 0.401772,0.296276 0,0.418426 0.316713,1.146608 0.498701,1.146608 0.04406,0 0.12938,-0.14132 0.189592,-0.314044 z M 35.409744,18.90428 c 0.42852,-1.02935 0.90557,-3.146719 0.708965,-3.146719 -0.190495,0 -0.906472,0.953901 -1.095813,1.45996 -0.268887,0.718665 -0.269209,2.643353 -3.99e-4,2.477228 0.04309,-0.02663 0.21736,-0.382343 0.387263,-0.790469 z m -8.231481,-3.022068 c 0.295997,-1.354706 0.04608,-4.612105 -0.353853,-4.612105 -0.11235,0 -0.04721,3.741227 0.07857,4.512384 0.07192,0.440927 0.191284,0.484168 0.275283,0.09972 z m -1.638115,-0.938308 c 0.211579,-0.986559 0.09154,-1.941424 -0.296422,-2.357848 -0.278214,-0.298628 -0.560696,-0.277211 -0.728312,0.05522 -0.152097,0.301649 -0.303815,1.121864 -0.207515,1.121864 0.03332,0 0.197083,-0.0972 0.363925,-0.216004 l 0.303349,-0.216004 -0.04851,0.584942 c -0.04353,0.524957 -0.0133,0.801402 0.179579,1.641927 0.05427,0.236475 0.06409,0.239729 0.192727,0.06381 0.07455,-0.101953 0.18308,-0.407011 0.241177,-0.677905 z m 6.574144,0.0073 c 0.247744,-0.265922 0.326706,-0.710755 0.23529,-1.325537 l -0.07234,-0.486537 -0.270347,0.380168 c -0.304802,0.42862 -0.340809,0.388329 -0.405871,-0.454168 -0.0237,-0.306829 -0.163788,-0.812072 -0.317981,-1.146794 l -0.275626,-0.598327 -0.154283,0.349024 c -0.196539,0.444615 -0.223304,2.097462 -0.04223,2.608026 0.281015,0.792376 0.896611,1.110776 1.303395,0.674144 z m 3.986407,-2.933962 c 0.0242,-0.0242 -0.03443,-0.370473 -0.130282,-0.769499 -0.663252,-2.7610261 -2.086092,-4.4703383 -3.714907,-4.4628579 -0.810956,0.00372 -1.744114,0.5708107 -2.228213,1.3541003 -0.244847,0.3961695 -0.227681,0.5199374 0.206242,1.4870715 l 0.301718,0.6724701 0.28297,-0.3906295 c 0.332425,-0.4588996 0.718926,-0.7321709 1.183848,-0.837028 1.042501,-0.2351222 2.177669,0.8942811 2.666781,2.6532385 0.09071,0.326212 0.182901,0.649255 0.204872,0.717873 0.02914,0.091 0.194598,0.05636 0.61146,-0.127991 0.314333,-0.139013 0.591312,-0.272549 0.615511,-0.296748 z M 29.121885,7.9097704 29.347415,7.4282543 29.010043,6.6376571 C 28.824488,6.2028287 28.627623,5.832044 28.572564,5.8136912 c -0.05506,-0.018353 -0.221217,0.18915 -0.36924,0.4611176 l -0.269133,0.4944864 0.420715,0.848304 c 0.231395,0.4665672 0.447881,0.8315152 0.481082,0.8109956 0.0332,-0.02052 0.161855,-0.2539905 0.285897,-0.5188244 z"
       id="path3928"
       inkscape:connector-curvature="0"
       transform="matrix(0.26458334,0,0,0.26458334,0,285.35833)" />
    <path
       style="fill:#000000;stroke-width:1"
       d="M 8.1574979,25.854337 C 8.0490813,25.479759 7.893633,24.108603 7.7759402,22.488747 7.608972,20.190694 7.6113909,9.6178787 7.7794194,7.281264 7.9019187,5.577782 8.0442427,4.3167706 8.1536493,3.9655342 8.2052142,3.7999914 9.394302,3.7910221 31.289214,3.7910221 h 23.081205 l 0.08594,0.2260407 c 0.128023,0.3367252 0.296204,2.076283 0.407174,4.2115526 0.129721,2.4960516 0.127418,10.7144116 -0.0037,13.3626406 -0.09929,2.004659 -0.317872,4.133067 -0.4457,4.339899 -0.03914,0.06332 -8.178032,0.09769 -23.133235,0.09769 -21.8884219,0 -23.0754449,-0.009 -23.1233621,-0.174512 z M 41.205158,22.920314 c 0.998812,-1.919844 1.148046,-4.32057 0.396572,-6.37966 -1.236831,-3.388996 -4.627699,-4.581963 -6.955827,-2.44718 -0.940654,0.862536 -1.54522,2.149125 -1.731107,3.684002 -0.39421,3.255006 1.791017,6.134184 4.295247,5.659265 0.644677,-0.12226 1.042078,-0.310846 1.536134,-0.728969 l 0.385948,-0.326629 -0.31971,-0.519595 c -0.17584,-0.285778 -0.34093,-0.519595 -0.366864,-0.519595 -0.02594,0 -0.21555,0.135327 -0.421368,0.300726 -1.236224,0.993457 -2.902586,0.418625 -3.674557,-1.267582 -0.73933,-1.614909 -0.431294,-3.67576 0.735935,-4.923622 0.688001,-0.735529 1.304875,-1.02717 2.177736,-1.029573 3.004432,-0.0083 4.735343,4.217279 3.099003,7.565378 -0.188408,0.3855 -0.43299,0.835852 -0.543514,1.000782 l -0.200955,0.299873 0.311465,0.539476 0.311464,0.539476 0.281049,-0.336652 c 0.154578,-0.185159 0.462084,-0.684623 0.683349,-1.109921 z M 32.657531,22.04862 c 0.06055,-0.06055 -0.02455,-0.461111 -0.233475,-1.099017 l -0.328746,-1.003747 -0.457503,-0.0022 c -0.768672,-0.0037 -1.513549,-0.458899 -2.183384,-1.334339 -0.121811,-0.159202 -0.236953,-0.271388 -0.255871,-0.249303 -0.01892,0.02208 -0.173728,0.459893 -0.344023,0.972908 l -0.309627,0.932754 0.313833,0.390523 c 0.449091,0.558834 1.305086,1.189975 1.905137,1.404693 0.541314,0.193699 1.695162,0.186215 1.893659,-0.01228 z m -5.443566,-1.230203 c 1.138125,-1.689681 1.746793,-4.05288 1.752951,-6.805972 0.0051,-2.296667 -0.491537,-4.4849098 -1.336741,-5.8893816 -1.847855,-3.0705728 -4.547292,-2.5972761 -5.870844,1.0293449 -0.476699,1.3061857 -0.643857,2.3754707 -0.635045,4.0622667 0.01359,2.601859 0.638675,4.480421 1.867837,5.613422 0.740497,0.682566 1.626208,0.797541 2.385482,0.309662 0.476547,-0.30621 0.527843,-0.529625 0.318103,-1.385486 L 25.524643,17.054231 25.2285,17.303418 c -1.052866,0.885929 -2.302252,-0.0046 -2.938193,-2.094319 -0.254079,-0.834897 -0.256616,-3.306304 -0.0044,-4.238151 0.499878,-1.8465148 1.542216,-3.0959536 2.577125,-3.0891667 1.184726,0.00777 2.30798,1.3840147 2.84051,3.4802777 0.704771,2.774277 0.220403,6.119414 -1.182349,8.165539 -0.285631,0.416636 -0.290733,0.444733 -0.172012,0.947351 0.159151,0.673781 0.270325,0.966725 0.366876,0.966725 0.04293,0 0.266966,-0.280466 0.497861,-0.623257 z m 10.887207,-0.78772 c 0.151436,-0.434411 0.136907,-1.122529 -0.03225,-1.527378 -0.161596,-0.386753 -0.661686,-0.694907 -0.969295,-0.597276 -0.225992,0.07173 -0.484519,0.599717 -0.484519,0.989538 0,0.3174 0.102191,0.31902 0.395998,0.0063 0.293753,-0.312687 0.401772,-0.243836 0.401772,0.256088 0,0.398253 0.326154,1.186796 0.490878,1.186796 0.04837,0 0.137203,-0.14132 0.197415,-0.314044 z M 35.302071,19.16472 c 0.298041,-0.692818 0.705524,-2.147154 0.780618,-2.786089 0.05235,-0.445418 0.03819,-0.539573 -0.07553,-0.502314 -0.249171,0.08164 -0.886917,1.0145 -1.039011,1.519818 -0.217828,0.723707 -0.183381,2.250558 0.05077,2.250558 0.0417,0 0.169113,-0.216888 0.28315,-0.481973 z M 27.29375,14.77927 c 0.09901,-1.290919 -0.207457,-3.610012 -0.45671,-3.455965 -0.201188,0.124341 -0.04465,4.41043 0.174004,4.764215 0.101589,0.164375 0.207262,-0.324637 0.282706,-1.30825 z m -1.806608,0.287078 c 0.281108,-0.959798 0.149829,-2.086559 -0.291399,-2.501072 -0.428265,-0.402333 -0.71021,-0.123796 -0.884464,0.873772 -0.06653,0.380873 -0.03675,0.390992 0.346823,0.117861 l 0.289627,-0.206233 v 0.760402 c 0,0.806744 0.174526,1.714025 0.30358,1.578172 0.04246,-0.0447 0.148584,-0.325003 0.235833,-0.622902 z m 6.578218,-0.09281 c 0.09243,-0.102136 0.206732,-0.320552 0.254001,-0.485369 0.0889,-0.309977 0.02912,-1.223852 -0.08002,-1.223345 -0.034,1.59e-4 -0.149794,0.131594 -0.257316,0.292081 -0.107522,0.160487 -0.224686,0.273753 -0.260365,0.251702 -0.03568,-0.02205 -0.08911,-0.321767 -0.118747,-0.666036 -0.06403,-0.743887 -0.537734,-1.90923 -0.675804,-1.662514 -0.164421,0.293805 -0.304761,1.524238 -0.236919,2.077196 0.08801,0.717359 0.194392,0.991558 0.515118,1.327753 0.304178,0.318848 0.622013,0.351564 0.860055,0.08853 z m 4.051144,-3.039843 c 0,-0.344099 -0.48797,-1.850297 -0.852585,-2.6316367 -0.907507,-1.9447179 -2.312074,-2.8529553 -3.687345,-2.3843535 -0.881619,0.3003978 -1.830353,1.2963468 -1.706182,1.7910899 0.03102,0.1235925 0.19387,0.5278974 0.36189,0.8984555 l 0.305489,0.6737418 0.322727,-0.4231245 c 0.413238,-0.5417906 0.884454,-0.8149979 1.404549,-0.8143464 1.038708,0.0013 1.90382,0.9865649 2.452568,2.7931979 l 0.2154,0.709159 0.591744,-0.255324 c 0.32546,-0.140429 0.591745,-0.301015 0.591745,-0.356859 z M 29.125223,7.9026429 29.354091,7.4140002 28.982834,6.6018217 C 28.778643,6.1551235 28.573049,5.8134554 28.525957,5.8425592 c -0.04709,0.029104 -0.200115,0.2482889 -0.340055,0.487078 l -0.254436,0.434162 0.422078,0.8510515 c 0.232143,0.4680783 0.449243,0.8342627 0.482444,0.8137431 0.0332,-0.02052 0.163358,-0.2571975 0.289235,-0.5259509 z"
       id="path3930"
       inkscape:connector-curvature="0"
       transform="matrix(0.26458334,0,0,0.26458334,0,285.35833)" />
    <path
       style="fill:#000000;stroke-width:1"
       d="M 8.1536493,25.854337 C 8.0477025,25.514208 7.9043568,24.261826 7.7798429,22.588468 7.6078458,20.276976 7.6072915,9.525307 7.7790512,7.2314034 7.9044926,5.5560944 8.0480438,4.3045676 8.1536493,3.9655342 8.2052142,3.7999914 9.394302,3.7910221 31.289214,3.7910221 h 23.081205 l 0.08452,0.2243727 c 0.315264,0.8368953 0.508126,5.0047115 0.506441,10.9444012 -0.0017,5.848809 -0.196471,10.031456 -0.505024,10.843012 l -0.08594,0.226041 H 31.289214 c -21.894912,0 -23.0839998,-0.009 -23.1355647,-0.174512 z M 41.144033,23.033501 c 0.190295,-0.358546 0.466011,-1.054101 0.612701,-1.545679 0.369826,-1.239332 0.395473,-3.095564 0.05913,-4.279804 -0.486654,-1.713493 -1.574601,-3.15862 -2.857309,-3.795386 -0.549137,-0.272604 -0.684411,-0.29705 -1.6454,-0.29735 -0.931062,-2.9e-4 -1.111105,0.02967 -1.625008,0.270466 -0.787047,0.368775 -1.651928,1.253759 -2.105508,2.154447 -0.927128,1.841029 -0.919824,4.277878 0.01769,5.90002 1.20852,2.091067 3.546377,2.644623 5.196013,1.23031 l 0.336388,-0.288402 -0.320012,-0.520085 c -0.176006,-0.286046 -0.34334,-0.520085 -0.371853,-0.520085 -0.02851,0 -0.192944,0.118986 -0.3654,0.264415 -1.23893,1.04475 -2.941415,0.482133 -3.725837,-1.231271 -0.73933,-1.614909 -0.431294,-3.67576 0.735935,-4.923622 0.688001,-0.735529 1.304875,-1.02717 2.177736,-1.029573 3.007318,-0.0083 4.736915,4.214062 3.099003,7.565378 -0.188408,0.3855 -0.43299,0.835852 -0.543514,1.000782 l -0.200955,0.299873 0.309835,0.536654 0.309835,0.536654 0.280271,-0.337921 c 0.154149,-0.185856 0.435966,-0.631276 0.626261,-0.989821 z m -8.792005,-0.899022 c 0.205675,-0.05712 0.373955,-0.133096 0.373955,-0.168838 0,-0.03574 -0.144166,-0.504814 -0.32037,-1.042384 l -0.320369,-0.977401 -0.45247,-0.0022 c -0.654662,-0.0032 -1.235581,-0.310075 -1.87831,-0.992332 l -0.564555,-0.599276 -0.308308,0.921551 c -0.18253,0.545593 -0.277549,0.985096 -0.232912,1.077314 0.128309,0.265082 0.833634,0.945272 1.345112,1.297178 0.760847,0.523476 1.600824,0.696719 2.358227,0.486378 z m -4.626732,-2.223914 c 0.394852,-0.811892 0.78156,-1.978292 1.029737,-3.105927 0.08755,-0.397817 0.130772,-1.333526 0.128963,-2.792193 -0.0024,-1.894779 -0.03216,-2.318802 -0.218642,-3.110297 -0.525143,-2.2288372 -1.544517,-3.9053459 -2.765156,-4.5476978 -0.618755,-0.3256148 -1.560285,-0.3023337 -2.165681,0.053551 -2.51105,1.4761306 -3.467519,7.5140448 -1.749615,11.0448248 0.574875,1.181534 1.584369,1.997445 2.464221,1.991678 0.333893,-0.0022 1.001513,-0.316772 1.239245,-0.583933 0.187288,-0.210473 0.187705,-0.234903 0.01642,-0.961435 -0.09666,-0.41001 -0.192363,-0.745473 -0.212674,-0.745473 -0.02031,0 -0.202242,0.112186 -0.404295,0.249303 -1.02741,0.697219 -2.137362,-0.145147 -2.759372,-2.094146 -0.191366,-0.599623 -0.222549,-0.915989 -0.221161,-2.243726 0.0018,-1.691653 0.151429,-2.411544 0.746363,-3.5901008 0.29519,-0.5847673 1.022439,-1.3346856 1.453144,-1.4984395 1.32771,-0.5047942 2.740532,0.8971343 3.411815,3.3855053 0.2315,0.858144 0.257431,1.132323 0.255373,2.700246 -0.0021,1.570453 -0.0289,1.844847 -0.268123,2.741485 -0.281055,1.053416 -0.812557,2.277612 -1.221811,2.814173 -0.244704,0.320822 -0.24506,0.324633 -0.09198,0.984694 0.08452,0.364444 0.18328,0.71053 0.219467,0.769081 0.108319,0.175265 0.687332,-0.58436 1.113758,-1.461173 z m 10.456139,-0.433988 c 0.06695,-0.738317 -0.156776,-1.287745 -0.600302,-1.474233 -0.533717,-0.224411 -0.80748,-0.0051 -0.927034,0.742503 -0.07458,0.466408 0.02514,0.510265 0.357008,0.15701 0.289049,-0.307679 0.401155,-0.244631 0.403962,0.227185 0.0012,0.202438 0.09241,0.566943 0.202683,0.810012 0.181114,0.399226 0.215437,0.426999 0.355102,0.287334 0.08843,-0.08843 0.177715,-0.409404 0.208581,-0.749811 z m -2.768283,-0.629481 c 0.515792,-1.337493 0.854018,-2.989809 0.61201,-2.989809 -0.130415,0 -0.64101,0.671195 -0.901276,1.184757 -0.335773,0.662554 -0.415588,2.604649 -0.107045,2.604649 0.04838,0 0.226714,-0.359818 0.396311,-0.799597 z m -8.238237,-3.11446 c 0.205577,-1.200137 0.141213,-3.045142 -0.143061,-4.100854 -0.09538,-0.354205 -0.121236,-0.38025 -0.213619,-0.215169 -0.107756,0.192549 -0.04296,3.359266 0.08627,4.216301 0.07613,0.504895 0.193584,0.548209 0.270408,0.09972 z m -1.62154,-0.957676 c 0.205711,-0.990902 -0.03111,-2.054079 -0.515252,-2.313186 -0.302292,-0.161782 -0.542111,0.101368 -0.667309,0.73223 -0.05668,0.285602 -0.08705,0.535612 -0.06748,0.555576 0.01956,0.01997 0.161337,-0.06288 0.315054,-0.184106 l 0.279485,-0.220405 0.05785,0.932015 c 0.03182,0.512609 0.0936,1.041372 0.137288,1.17503 0.07491,0.229183 0.08698,0.232694 0.212032,0.06168 0.07293,-0.09974 0.184679,-0.432208 0.248333,-0.73883 z m 6.567043,0.121527 c 0.163507,-0.207865 0.20668,-0.405757 0.20668,-0.947351 0,-0.37653 -0.0352,-0.6846 -0.07822,-0.6846 -0.04302,0 -0.158213,0.135415 -0.255981,0.300922 -0.229994,0.38935 -0.363847,0.296922 -0.363847,-0.251242 0,-0.446236 -0.456484,-1.844662 -0.602148,-1.844662 -0.286721,0 -0.439232,2.103908 -0.204146,2.816225 0.134144,0.406461 0.618769,0.87346 0.906429,0.87346 0.101504,0 0.277559,-0.118239 0.391233,-0.262752 z m 3.49748,-2.658204 c 0.418752,-0.20554 0.446582,-0.24359 0.416385,-0.569286 C 35.987433,11.163673 35.460447,9.6330618 35.091822,8.9316566 34.91743,8.5998307 34.504491,8.0551073 34.17418,7.7211605 33.184428,6.7205167 32.227588,6.5445077 31.102646,7.1561576 30.640155,7.407622 29.834068,8.2584785 29.834068,8.4951912 c 0,0.1065286 0.583175,1.5963548 0.651696,1.6648758 0.02268,0.02268 0.25554,-0.1854903 0.517468,-0.4625969 1.307704,-1.3834783 2.877858,-0.5379569 3.661173,1.9715269 0.09416,0.301656 0.188747,0.604559 0.210193,0.673118 0.05454,0.174354 0.225079,0.150531 0.7433,-0.103832 z M 29.126103,7.900762 29.349722,7.4233268 28.999241,6.654247 c -0.192764,-0.4229938 -0.393644,-0.7690797 -0.4464,-0.7690797 -0.05275,0 -0.213512,0.200658 -0.357237,0.4459068 l -0.261319,0.4459069 0.402538,0.8006081 c 0.221396,0.4403345 0.439241,0.8006081 0.4841,0.8006081 0.04486,0 0.18219,-0.2148458 0.30518,-0.4774352 z"
       id="path3932"
       inkscape:connector-curvature="0"
       transform="matrix(0.26458334,0,0,0.26458334,0,285.35833)" />
    <path
       style="fill:#000000;stroke-width:1"
       d="M 8.1524238,25.863417 C 8.0066592,25.483561 7.7925909,23.019061 7.699053,20.643905 7.4631023,14.652541 7.6813272,5.7951745 8.1050555,4.1649766 l 0.0972,-0.3739545 H 31.286337 54.370419 l 0.09121,0.239914 c 0.312096,0.8208745 0.498155,4.8371896 0.499359,10.7792779 0.0012,6.048642 -0.187492,10.148624 -0.50605,10.994263 l -0.08452,0.224372 H 31.293163 c -21.4038354,0 -23.0818602,-0.012 -23.1407392,-0.165432 z M 41.198193,22.887631 c 0.594942,-1.190134 0.817322,-2.157654 0.825138,-3.589963 0.0079,-1.440016 -0.165419,-2.251572 -0.730111,-3.419515 -0.525898,-1.087709 -1.38964,-1.985049 -2.347273,-2.438579 -0.631359,-0.299009 -0.764115,-0.32462 -1.68265,-0.32462 -0.89988,0 -1.05561,0.0285 -1.595539,0.292006 -1.1765,0.574176 -2.199912,1.9539 -2.591252,3.493421 -0.195572,0.769377 -0.195945,2.432442 -6.98e-4,3.181987 0.343523,1.318877 1.15856,2.454644 2.159239,3.008938 0.485091,0.2687 0.616707,0.294931 1.479799,0.294931 1.024657,0 1.279481,-0.08583 2.019146,-0.680112 l 0.373748,-0.300286 -0.262354,-0.457151 c -0.377632,-0.658028 -0.389047,-0.663426 -0.753357,-0.356248 -0.709451,0.598193 -1.48762,0.702876 -2.325261,0.312807 -1.402433,-0.65308 -2.141484,-2.630161 -1.693485,-4.530351 0.198683,-0.842719 0.472787,-1.350916 1.068198,-1.980476 0.679108,-0.718055 1.23515,-0.974467 2.121831,-0.978454 2.100077,-0.0094 3.731039,2.124563 3.737814,4.890681 0.0029,1.168162 -0.432622,2.524998 -1.181341,3.680706 l -0.193811,0.299163 0.306493,0.536478 0.306494,0.536478 0.280223,-0.337035 c 0.154108,-0.18537 0.459668,-0.696032 0.679009,-1.134806 z m -8.937986,-0.741567 c 0.210021,-0.04874 0.4041,-0.110868 0.431289,-0.138057 0.02719,-0.02719 -0.0994,-0.502295 -0.281299,-1.055792 l -0.330734,-1.006359 -0.44958,-0.0022 c -0.640187,-0.0031 -1.228425,-0.307178 -1.854154,-0.958409 -0.298736,-0.310911 -0.558774,-0.547307 -0.577862,-0.525325 -0.07332,0.08444 -0.560453,1.644208 -0.560453,1.794551 0,0.224176 1.164003,1.314515 1.697272,1.589861 0.69352,0.35809 1.283977,0.450612 1.925521,0.30172 z m -4.51601,-2.34979 c 0.915348,-1.869736 1.259562,-3.790221 1.161768,-6.481878 -0.04485,-1.234404 -0.11644,-1.832534 -0.316298,-2.642611 C 28.245656,9.2774166 27.601235,7.9645702 26.876634,7.181916 25.970783,6.2034889 25.212476,5.9355142 24.190399,6.23264 c -1.351469,0.3928827 -2.561717,2.4615258 -2.935446,5.017477 -0.180991,1.237803 -0.07774,3.752791 0.194715,4.742689 0.261256,0.949224 0.761496,1.962641 1.245505,2.523221 0.408271,0.472859 1.24831,0.932272 1.698739,0.929033 0.429561,-0.0031 1.105933,-0.333183 1.304892,-0.636834 0.158022,-0.241171 0.15784,-0.299516 -0.003,-0.955707 -0.09419,-0.384372 -0.186871,-0.698856 -0.20595,-0.698856 -0.01908,0 -0.200006,0.112186 -0.402059,0.249303 -1.203772,0.816901 -2.566149,-0.556794 -2.944507,-2.968968 -0.139615,-0.890093 -0.05107,-2.792146 0.167858,-3.605697 0.344524,-1.2802959 1.236354,-2.567473 1.969928,-2.8431958 1.35903,-0.5108079 2.786271,0.9009809 3.472183,3.4345888 0.17911,0.661592 0.217596,1.087145 0.225466,2.49303 0.01373,2.45284 -0.415439,4.099348 -1.492908,5.727512 -0.230627,0.3485 -0.232436,0.368886 -0.08467,0.954122 0.08305,0.328907 0.17514,0.665325 0.204654,0.747595 0.08931,0.248949 0.597799,-0.441485 1.138368,-1.545679 z m 10.321959,0.202646 c 0.365625,-0.875067 -0.06666,-2.047488 -0.754926,-2.047488 -0.349371,0 -0.558624,0.251051 -0.644169,0.772839 -0.07955,0.48522 0.01109,0.532004 0.344046,0.177586 0.289049,-0.307679 0.401155,-0.244631 0.403962,0.227185 0.0021,0.350328 0.320107,1.215699 0.446768,1.215699 0.0329,0 0.124847,-0.15562 0.204319,-0.345821 z m -2.462237,-1.720184 c 0.353508,-1.118632 0.582508,-2.285702 0.470137,-2.395998 -0.111766,-0.109702 -0.640205,0.5422 -0.915916,1.129909 -0.274543,0.585222 -0.39599,1.500939 -0.291487,2.197819 0.07247,0.483252 0.07282,0.483618 0.250781,0.263843 0.09802,-0.121045 0.316934,-0.659053 0.486485,-1.195573 z m -8.422887,-2.645822 c 0.142918,-1.172541 0.151102,-1.503908 0.06197,-2.50901 -0.05307,-0.59839 -0.148155,-1.244546 -0.211307,-1.435901 -0.101425,-0.307322 -0.126741,-0.326623 -0.216954,-0.16542 -0.10501,0.187642 -0.04077,3.129413 0.08867,4.060471 0.08172,0.587791 0.209264,0.610698 0.277621,0.04986 z m -1.634038,-0.927389 c 0.189438,-1.003984 -0.03137,-1.9882 -0.502637,-2.240414 -0.110259,-0.05901 -0.248997,-0.0773 -0.308306,-0.04064 -0.165903,0.102534 -0.386649,0.698316 -0.386649,1.043545 v 0.309604 l 0.274233,-0.216211 0.274234,-0.216211 0.06234,0.938833 c 0.03429,0.516358 0.09607,1.045093 0.13729,1.174967 0.06917,0.21795 0.08469,0.222804 0.201519,0.06303 0.06962,-0.0952 0.181204,-0.462631 0.247975,-0.816504 z m 6.535333,0.208943 c 0.21613,-0.216129 0.244296,-0.329898 0.240718,-0.972282 l -0.004,-0.727511 -0.291692,0.341161 c -0.327408,0.382937 -0.350631,0.357711 -0.435902,-0.473508 -0.02997,-0.292178 -0.171282,-0.785798 -0.314019,-1.096933 -0.236507,-0.515533 -0.269695,-0.548014 -0.37423,-0.366259 -0.06309,0.109693 -0.132685,0.66181 -0.154658,1.226926 -0.04528,1.164673 0.112054,1.765956 0.55282,2.112662 0.332405,0.261469 0.483874,0.252886 0.781015,-0.04426 z m 3.483042,-2.667015 c 0.397557,-0.193148 0.451413,-0.257906 0.451413,-0.542793 0,-0.375142 -0.515567,-1.9710002 -0.851058,-2.6343172 C 34.362535,7.4823141 32.926768,6.550425 31.772731,6.8681096 30.921159,7.1025314 29.900549,8.0295261 29.900549,8.568567 c 0,0.1963296 0.432755,1.3571472 0.592003,1.587982 0.01261,0.01828 0.239824,-0.1906954 0.50492,-0.4643831 0.727734,-0.7513156 1.461704,-0.8635191 2.238831,-0.3422546 0.572723,0.3841582 1.155202,1.3292497 1.445048,2.3446357 0.216207,0.757417 0.222579,0.772219 0.332422,0.772219 0.0551,0 0.30332,-0.09869 0.551596,-0.219313 z M 29.176837,7.7999249 C 29.348175,7.419965 29.348167,7.419913 28.998471,6.6525576 28.806131,6.2304929 28.60517,5.8851673 28.551892,5.8851673 c -0.05328,0 -0.212546,0.2069677 -0.353929,0.4599283 l -0.257058,0.4599283 0.410313,0.7886735 c 0.449258,0.8635303 0.521122,0.881481 0.825619,0.2062275 z"
       id="path3934"
       inkscape:connector-curvature="0"
       transform="matrix(0.26458334,0,0,0.26458334,0,285.35833)" />
    <path
       style="fill:url(#meshgradient3940);fill-opacity:1;stroke-width:1"
       d="M 8.1544745,25.854337 C 7.8612916,24.8986 7.6929542,22.01604 7.6288966,16.854499 7.5557923,10.964008 7.7612558,5.4899651 8.1051869,4.1649766 L 8.2022554,3.7910221 H 31.286337 54.370419 l 0.08862,0.2330947 c 0.322047,0.8470457 0.500661,4.6821887 0.502343,10.7860972 0.0017,6.13377 -0.181594,10.141907 -0.502343,10.985541 l -0.08862,0.233094 H 31.289214 c -21.8952264,0 -23.0839567,-0.009 -23.1347395,-0.174512 z M 41.005004,23.240755 c 0.211861,-0.358758 0.510074,-1.011283 0.662696,-1.450057 0.260783,-0.749727 0.277645,-0.899859 0.279994,-2.49303 0.0024,-1.608096 -0.01215,-1.737959 -0.282504,-2.525707 -0.535479,-1.56029 -1.5701,-2.790924 -2.856214,-3.397334 -0.475813,-0.224348 -0.680564,-0.258675 -1.545679,-0.259139 -0.898933,-4.78e-4 -1.055219,0.02795 -1.585797,0.288465 -1.192073,0.585315 -2.235212,2.011456 -2.596812,3.550267 -0.193206,0.822203 -0.195608,2.259547 -0.0051,3.067451 0.344962,1.463107 1.379392,2.788161 2.509664,3.214758 1.057728,0.399217 2.303,0.175821 3.201817,-0.574392 l 0.327092,-0.273011 -0.335101,-0.531337 -0.335102,-0.531335 -0.30717,0.258466 c -1.516457,1.276014 -3.611426,0.194543 -4.102,-2.117548 -0.213954,-1.008368 -0.05774,-2.240643 0.397069,-3.132132 0.301354,-0.590702 1.130529,-1.430375 1.670905,-1.692058 1.077175,-0.521635 2.523133,-0.192453 3.481066,0.792487 1.64162,1.687904 1.874472,4.530546 0.571714,6.979475 -0.246977,0.464269 -0.449049,0.882106 -0.449049,0.928526 0,0.04642 0.123405,0.289731 0.274233,0.540692 l 0.274233,0.456294 0.182434,-0.223757 c 0.10034,-0.123066 0.355775,-0.517286 0.567637,-0.876044 z m -8.446321,-1.167187 c 0.117349,-0.03331 0.160119,-0.107887 0.120734,-0.210522 -0.03354,-0.08742 -0.179413,-0.554544 -0.324152,-1.038064 l -0.263162,-0.879126 -0.455899,-0.0022 c -0.64634,-0.0031 -1.232919,-0.305276 -1.860475,-0.958409 -0.298736,-0.310911 -0.558774,-0.547307 -0.577862,-0.525325 -0.135083,0.155555 -0.563028,1.719601 -0.513341,1.876149 0.08612,0.271344 1.180777,1.266044 1.665281,1.513218 0.683868,0.348884 1.483776,0.430099 2.208876,0.224269 z m -4.981429,-1.920522 c 0.81772,-1.565671 1.230075,-3.244806 1.324311,-5.392692 C 29.050508,11.365597 28.285086,8.6380986 26.74288,7.0681154 26.199268,6.5147123 25.991867,6.3739967 25.515861,6.2356178 23.787197,5.7330816 22.280209,7.1934859 21.483938,10.142907 c -0.244132,0.904279 -0.263905,1.127252 -0.263561,2.972047 2.99e-4,1.740571 0.02812,2.095965 0.218388,2.792194 0.427761,1.565276 1.247187,2.837818 2.125316,3.300543 0.489014,0.257683 1.253339,0.23664 1.712518,-0.04715 0.55037,-0.340147 0.598188,-0.491277 0.413026,-1.305372 l -0.159361,-0.70066 -0.42468,0.248878 c -0.98073,0.574747 -1.82232,0.114591 -2.500771,-1.367342 -0.535957,-1.170682 -0.697243,-3.047675 -0.403481,-4.69557 0.263195,-1.4764281 1.230151,-3.03651 2.079771,-3.3554906 1.361657,-0.5112193 2.816095,0.931708 3.462107,3.4347076 0.395373,1.531888 0.364465,3.943439 -0.07157,5.584387 -0.177953,0.66969 -0.808727,2.093997 -1.122518,2.534675 -0.247216,0.347183 -0.25809,0.691716 -0.04453,1.410846 l 0.160759,0.541337 0.284663,-0.340979 c 0.156565,-0.187539 0.438824,-0.636151 0.627245,-0.996914 z m 10.589387,-0.560481 c 0.08415,-0.561164 -0.01648,-0.980878 -0.322329,-1.344358 -0.485315,-0.576765 -1.026241,-0.331905 -1.185033,0.536428 -0.06585,0.360108 -0.05791,0.37782 0.125476,0.279678 0.10768,-0.05763 0.253679,-0.174542 0.324442,-0.259806 0.207796,-0.250379 0.275531,-0.183775 0.324058,0.318649 0.02516,0.260522 0.128375,0.647519 0.229359,0.859993 0.166758,0.350865 0.195378,0.37022 0.311869,0.210907 0.07055,-0.09647 0.157015,-0.367145 0.192158,-0.601491 z m -2.852953,-0.56913 c 0.154885,-0.342792 0.398881,-1.089859 0.542212,-1.660149 0.407178,-1.620085 0.340337,-1.863172 -0.27996,-1.018159 -0.468533,0.63827 -0.626536,1.033718 -0.710875,1.779182 -0.06533,0.577405 0.0073,1.522384 0.117009,1.522384 0.0275,0 0.176729,-0.280466 0.331614,-0.623258 z m -8.103712,-5.310154 c -0.04698,-1.621616 -0.213093,-2.596737 -0.373726,-2.193866 -0.162328,0.407122 -0.01578,4.160022 0.174462,4.467847 0.156053,0.2525 0.243536,-0.745846 0.199264,-2.273981 z m -1.753596,1.373736 c 0.328768,-1.141843 0.04659,-2.535046 -0.526874,-2.601297 -0.311771,-0.03602 -0.440804,0.147158 -0.539812,0.766326 -0.06879,0.430182 0.03338,0.533499 0.258872,0.261793 0.06828,-0.08227 0.156928,-0.149582 0.197001,-0.149582 0.04007,0 0.100305,0.41509 0.133848,0.922421 0.09716,1.469447 0.223343,1.681189 0.476965,0.800339 z m 6.582953,-0.116398 c 0.202238,-0.163763 0.237021,-0.291896 0.263934,-0.972282 l 0.031,-0.783662 -0.285557,0.324665 c -0.320626,0.364539 -0.419659,0.335338 -0.419659,-0.123743 0,-0.361749 -0.251161,-1.262393 -0.470981,-1.688903 -0.139712,-0.27108 -0.15749,-0.278204 -0.255816,-0.102505 -0.05812,0.103852 -0.126206,0.650541 -0.151303,1.214865 -0.05177,1.163932 0.105537,1.769771 0.550362,2.11967 0.316403,0.248883 0.442836,0.250921 0.738021,0.01189 z m 3.526036,-2.723166 c 0.56936,-0.276616 0.577318,-0.426238 0.09875,-1.856431 C 35.238321,9.1185547 34.832458,8.3829944 34.214609,7.7640229 33.039447,6.586728 31.788665,6.5094174 30.639052,7.5430182 c -0.74593,0.6706558 -0.829229,0.8727583 -0.612666,1.4864611 0.09617,0.2725315 0.250004,0.640479 0.34185,0.8176611 l 0.166991,0.3221496 0.472121,-0.4873692 c 1.309683,-1.3519843 2.87878,-0.5172783 3.664158,1.9492072 0.146346,0.459601 0.305767,0.835638 0.354267,0.835638 0.0485,0 0.29132,-0.09869 0.539596,-0.219313 z M 29.133873,7.8595817 c 0.162176,-0.3622334 0.170142,-0.4600257 0.05888,-0.7229787 -0.29837,-0.7051848 -0.58218,-1.2514357 -0.650198,-1.2514357 -0.04009,0 -0.188163,0.213154 -0.329051,0.4736756 l -0.256161,0.4736757 0.39914,0.7229787 c 0.219527,0.3976383 0.442048,0.7229787 0.494491,0.7229787 0.05244,0 0.179745,-0.1885025 0.282895,-0.4188943 z"
       id="path3936"
       inkscape:connector-curvature="0"
       transform="matrix(0.26458334,0,0,0.26458334,0,285.35833)" />
    <path
       style="fill:none;stroke:#000000;stroke-width:0.26458335px;stroke-linecap:butt;stroke-linejoin:miter;stroke-opacity:1"
       d="m 2.481342,286.72015 0.1492536,5.09328 11.3432774,0.056 -0.11194,-5.16791 z"
       id="path4342"
       inkscape:connector-curvature="0" />
  </g>
  <g
     inkscape:groupmode="layer"
     id="layer3"
     inkscape:label="Capa 3" />
</svg>
