<?xml version="1.0" encoding="UTF-8" standalone="no"?>
<!-- Created with Inkscape (http://www.inkscape.org/) -->

<svg
   xmlns:dc="http://purl.org/dc/elements/1.1/"
   xmlns:cc="http://creativecommons.org/ns#"
   xmlns:rdf="http://www.w3.org/1999/02/22-rdf-syntax-ns#"
   xmlns:svg="http://www.w3.org/2000/svg"
   xmlns="http://www.w3.org/2000/svg"
   xmlns:sodipodi="http://sodipodi.sourceforge.net/DTD/sodipodi-0.dtd"
   xmlns:inkscape="http://www.inkscape.org/namespaces/inkscape"
   width="70"
   height="50"
   viewBox="0 0 18.520833 13.229167"
   version="1.1"
   id="svg8"
   inkscape:version="0.92.3 (2405546, 2018-03-11)"
   sodipodi:docname="dibujo.svg">
  <defs
     id="defs2" />
  <sodipodi:namedview
     id="base"
     pagecolor="#ffffff"
     bordercolor="#666666"
     borderopacity="1.0"
     inkscape:pageopacity="0.0"
     inkscape:pageshadow="2"
     inkscape:zoom="10.891743"
     inkscape:cx="24.683446"
     inkscape:cy="20.084206"
     inkscape:document-units="mm"
     inkscape:current-layer="layer1"
     showgrid="false"
     units="px"
     objecttolerance="20"
     inkscape:window-width="1920"
     inkscape:window-height="1017"
     inkscape:window-x="-8"
     inkscape:window-y="32"
     inkscape:window-maximized="1" />
  <metadata
     id="metadata5">
    <rdf:RDF>
      <cc:Work
         rdf:about="">
        <dc:format>image/svg+xml</dc:format>
        <dc:type
           rdf:resource="http://purl.org/dc/dcmitype/StillImage" />
        <dc:title></dc:title>
      </cc:Work>
    </rdf:RDF>
  </metadata>
  <g
     inkscape:label="Capa 1"
     inkscape:groupmode="layer"
     id="layer1"
     transform="translate(0,-283.77082)">
    <path
       style="fill:none;stroke:#000000;stroke-width:0.26458332px;stroke-linecap:butt;stroke-linejoin:miter;stroke-opacity:1"
       d="m 14.065127,285.24261 c -15.1109773,-3.65412 -6.3477207,14.67488 -1.360358,9.30387 3.279789,-3.53208 -2.526008,-7.57076 1.360358,-9.30387 z"
       id="path4536"
       inkscape:connector-curvature="0" />
    <path
       style="fill:none;stroke:#000000;stroke-width:0.26458332px;stroke-linecap:butt;stroke-linejoin:miter;stroke-opacity:1"
       d="m 5.538599,287.67182 c -4.64073367,3.83391 -1.4762628,7.82388 3.5223548,7.33621"
       id="path4540"
       inkscape:connector-curvature="0" />
    <path
       style="fill:none;stroke:#000000;stroke-width:0.26458332px;stroke-linecap:butt;stroke-linejoin:miter;stroke-opacity:1"
       d="m 3.6923995,289.8824 c -5.2208787,4.85374 -0.2159994,7.73279 4.542623,5.31997"
       id="path4544"
       inkscape:connector-curvature="0" />
    <path
       style="fill:#e9ddaf;fill-opacity:0.76381908;stroke-width:0.99999994;stroke-miterlimit:4;stroke-dasharray:2.99999982, 2.99999982;stroke-dashoffset:0"
       d="m 38.182705,43.710657 c -0.429224,-0.09222 -1.090276,-0.280462 -1.469003,-0.418326 -0.758093,-0.27596 -2.200391,-0.975666 -2.398758,-1.163716 -0.06935,-0.06574 -0.270695,-0.187365 -0.447435,-0.270273 -0.453227,-0.212606 -1.664148,-1.134407 -2.674987,-2.036304 -2.702055,-2.410847 -5.344175,-6.191047 -7.02123,-10.04559 -2.491837,-5.727237 -3.077961,-11.44645 -1.629232,-15.89752 0.351917,-1.081228 1.250254,-2.819941 1.907227,-3.691401 4.2479,-5.6347383 12.995469,-7.2610876 25.577252,-4.7553261 0.782703,0.1558814 1.435978,0.2955942 1.451722,0.3104727 0.01574,0.014879 -0.272866,0.2276348 -0.641355,0.4727918 -2.341349,1.5577073 -3.473565,3.6700148 -3.472565,6.4785526 6.42e-4,1.892769 0.38854,3.611492 1.755171,7.777577 1.373534,4.187124 1.86145,6.008674 2.146382,8.013156 0.154197,1.084766 0.177405,3.488283 0.04282,4.434878 -0.718664,5.054793 -4.896982,9.91602 -9.302655,10.823093 -0.98424,0.202642 -2.801851,0.187399 -3.823358,-0.03207 z"
       id="path4548"
       inkscape:connector-curvature="0"
       transform="matrix(0.26458333,0,0,0.26458333,0,283.77082)" />
    <path
       style="fill:#e9ddaf;fill-opacity:0.76381908;stroke-width:0.99999994;stroke-miterlimit:4;stroke-dasharray:2.99999982, 2.99999982;stroke-dashoffset:0"
       d="m 28.358749,41.950666 c -4.113648,-0.421288 -7.876842,-1.774007 -10.58085,-3.803399 -0.425835,-0.319595 -1.204409,-1.032534 -1.730163,-1.58431 -1.453535,-1.525476 -2.29499,-3.006923 -2.809225,-4.945858 -0.208276,-0.78531 -0.240199,-1.095454 -0.248668,-2.415884 -0.0073,-1.145752 0.03091,-1.70508 0.156996,-2.295316 0.769097,-3.600283 3.129908,-7.270736 6.802064,-10.575456 0.551393,-0.49622 1.014715,-0.890037 1.029603,-0.875149 0.01489,0.01489 -0.0399,0.417963 -0.121751,0.895719 -0.21014,1.226557 -0.205552,4.346696 0.0086,5.826533 0.713365,4.93025 2.684478,9.777662 5.721128,14.069554 1.431444,2.02315 3.678513,4.393508 5.307214,5.598402 l 0.275309,0.20367 -1.514909,-0.0093 c -0.8332,-0.0051 -1.866093,-0.04526 -2.295317,-0.08921 z"
       id="path4550"
       inkscape:connector-curvature="0"
       transform="matrix(0.26458333,0,0,0.26458333,0,283.77082)" />
    <path
       style="fill:#e9ddaf;fill-opacity:0.76381908;stroke-width:0.99999994;stroke-miterlimit:4;stroke-dasharray:2.99999982, 2.99999982;stroke-dashoffset:0"
       d="m 16.055852,45.852367 c -5.440111,-0.679946 -8.9943668,-3.19351 -9.7770644,-6.914325 -0.1799968,-0.855675 -0.1769244,-2.353547 0.00682,-3.32275 0.4398369,-2.320078 1.7022475,-4.84872 3.7106123,-7.432454 0.6720231,-0.86455 2.3116271,-2.760235 2.3522391,-2.719624 0.01121,0.01121 -0.05834,0.350731 -0.154552,0.754488 -0.800528,3.359337 -0.179163,6.717961 1.772694,9.581822 0.638204,0.936405 2.479146,2.760834 3.558257,3.526341 1.264761,0.897203 3.441935,1.963014 5.170906,2.531358 2.058837,0.676777 3.742382,0.99715 6.617418,1.259273 l 0.633083,0.05772 -0.403552,0.183565 c -1.599627,0.727629 -3.901358,1.508574 -5.627171,1.909221 -1.990013,0.461982 -2.955094,0.571264 -5.288932,0.598896 -1.237175,0.01465 -2.394015,0.0086 -2.570754,-0.01353 z"
       id="path4552"
       inkscape:connector-curvature="0"
       transform="matrix(0.26458333,0,0,0.26458333,0,283.77082)" />
    <path
       sodipodi:type="star"
       style="fill:#e9afaf;fill-opacity:0.76381908;stroke-width:0.26458332;stroke-miterlimit:4;stroke-dasharray:0.79374994, 0.79374993999999999;stroke-dashoffset:0"
       id="path4554"
       sodipodi:sides="5"
       sodipodi:cx="10.907154"
       sodipodi:cy="293.11325"
       sodipodi:r1="1.7231989"
       sodipodi:r2="1.1193911"
       sodipodi:arg1="0.37527082"
       sodipodi:arg2="1.5245368"
       inkscape:flatsided="false"
       inkscape:rounded="0"
       inkscape:randomized="0"
       d="m 12.510433,293.74485 -1.551515,0.48659 -0.157006,0.60179 -0.9422272,-1.32521 -0.6208525,0.0366 0.9691857,-1.30562 -0.2267016,-0.57914 1.5412176,0.51829 0.480743,-0.39457 -0.01666,1.62594 z"
       inkscape:transform-center-x="0.032521653"
       inkscape:transform-center-y="0.13331377" />
    <ellipse
       style="fill:#000000;fill-opacity:0.76381908;stroke-width:0.26458332;stroke-miterlimit:4;stroke-dasharray:0.79374994, 0.79374994;stroke-dashoffset:0"
       id="path4558"
       cx="10.931446"
       cy="293.27115"
       rx="0.58301044"
       ry="0.35223547" />
    <path
       style="fill:none;stroke:#000000;stroke-width:0.26458332px;stroke-linecap:butt;stroke-linejoin:miter;stroke-opacity:1"
       d="m 6.5109729,290.6494 c 0.3614152,-0.12314 0.776053,-0.19232 1.1094556,-0.37803 0.2861618,-1.06933 2.9144415,-1.57103 3.6412915,-0.68047 0.533571,0.21492 1.227131,-0.10251 1.507722,-0.12602"
       id="path4588"
       inkscape:connector-curvature="0" />
    <path
       style="fill:none;stroke:#000000;stroke-width:0.26458332px;stroke-linecap:butt;stroke-linejoin:miter;stroke-opacity:1"
       d="m 4.0567811,289.17793 c -7.9646674,-5.62964 11.2159769,-6.35419 12.9233979,-2.93934 0.85298,1.70596 -1.04456,4.64455 -1.04456,6.4374 0,3.71373 1.27474,2.28052 -3.133682,1.89479"
       id="path4592"
       inkscape:connector-curvature="0" />
    <path
       style="fill:none;stroke:#000000;stroke-width:0.26458332px;stroke-linecap:butt;stroke-linejoin:miter;stroke-opacity:1"
       d="m 1.2882832,293.37562 c -1.68696911,5.0938 5.6553737,2.88118 8.2278357,2.11278"
       id="path4594"
       inkscape:connector-curvature="0" />
    <path
       style="fill:#000000;fill-opacity:0.76381908;stroke-width:0.99999994;stroke-miterlimit:4;stroke-dasharray:2.99999982, 2.99999982;stroke-dashoffset:0"
       d="M 12.283466,48.005123 C 9.7951919,47.755529 8.0614709,47.225622 6.7959735,46.327889 6.2676257,45.953083 5.600114,45.233116 5.2811548,44.694029 4.9792765,44.183812 4.6635195,43.285824 4.5545993,42.627762 4.3805,41.575908 4.4895936,39.878854 4.8252422,38.417655 c 0.1538949,-0.66996 0.2519531,-0.803411 0.2519531,-0.342892 0,0.762852 0.373692,2.154274 0.814111,3.031299 0.578527,1.152044 1.5745432,2.331902 2.6462641,3.134701 4.7518976,3.559528 13.0221216,3.701626 20.8410446,0.358087 0.750069,-0.320746 1.903032,-0.864457 1.980288,-0.93386 0.01156,-0.01038 -0.02711,-0.111954 -0.08594,-0.225711 -0.05883,-0.113757 -0.09489,-0.2189 -0.08014,-0.233652 0.01475,-0.01475 0.586067,-0.05467 1.269588,-0.08872 l 1.242767,-0.06189 0.471846,0.267601 c 0.259515,0.14718 0.632525,0.33939 0.828913,0.427132 l 0.357067,0.159531 -0.292146,0.09052 c -0.160681,0.04979 -1.35848,0.395707 -2.661776,0.768708 -6.582788,1.883977 -11.462572,2.872794 -15.86647,3.215109 -0.769605,0.05982 -3.728229,0.07476 -4.259152,0.0215 z"
       id="path4596"
       inkscape:connector-curvature="0"
       transform="matrix(0.26458333,0,0,0.26458333,0,283.77082)" />
    <path
       style="fill:#000000;fill-opacity:0.76381908;stroke-width:0.99999994;stroke-miterlimit:4;stroke-dasharray:2.99999982, 2.99999982;stroke-dashoffset:0"
       d="m 58.476328,42.074977 c -2.937789,-0.811978 -5.389184,-1.284622 -8.278787,-1.596202 -0.589161,-0.06353 -1.082065,-0.123243 -1.09534,-0.1327 -0.01328,-0.0095 0.12165,-0.201098 0.299836,-0.425868 2.27653,-2.871679 3.359747,-6.460716 3.072253,-10.179335 C 52.276994,27.188934 51.799986,25.193711 50.270296,20.522039 49.347332,17.703307 49.163297,17.103014 48.906923,16.074925 47.96762,12.308215 48.356436,9.9727907 50.235416,8.0953211 51.036151,7.2952296 51.995768,6.6909759 53.69719,5.9155038 54.272098,5.6534728 54.730903,5.4275088 54.716755,5.4133615 54.702608,5.3992142 54.023269,5.2289174 53.207113,5.0349241 45.1446,3.1185335 38.722037,2.7078367 33.502275,3.7748796 27.105691,5.0824926 22.933832,8.6335734 21.34237,14.125373 c -0.09057,0.312547 -0.164677,0.608822 -0.164677,0.658388 0,0.144386 -0.0641,0.107729 -0.324865,-0.185797 -0.227877,-0.256502 -0.253621,-0.268829 -0.365888,-0.175192 -1.719454,1.43411 -3.917821,3.676714 -4.847473,4.94502 -0.14973,0.204273 -0.292062,0.372257 -0.316295,0.373298 -0.07063,0.003 -1.28025,-0.912779 -1.97737,-1.497084 -2.509274,-2.103198 -3.96026,-3.92688 -4.5409267,-5.707295 -0.156217,-0.478986 -0.1804887,-0.658957 -0.1838667,-1.363348 -0.00346,-0.722464 0.015102,-0.863771 0.1691928,-1.2876896 0.565915,-1.556888 2.0245306,-2.8952551 4.4346246,-4.0690348 3.927873,-1.912978 9.745458,-3.122042 17.398925,-3.616004 1.726683,-0.1114418 8.652286,-0.1109849 10.290035,6.789e-4 6.402153,0.4365068 11.203466,1.2315552 15.176782,2.5131199 3.21908,1.0382915 5.728562,2.4172621 6.873628,3.7770864 1.449911,1.7218432 1.851412,4.2750822 1.218027,7.7457092 -0.35689,1.955571 -0.784231,3.477133 -2.113259,7.524323 -2.20249,6.707077 -2.466309,8.032543 -2.330474,11.708634 0.07422,2.00868 0.17953,3.307354 0.425567,5.248148 0.197255,1.555997 0.20403,1.813397 0.0476,1.808459 -0.06249,-0.002 -0.843387,-0.20529 -1.735333,-0.451816 z"
       id="path4598"
       inkscape:connector-curvature="0"
       transform="matrix(0.26458333,0,0,0.26458333,0,283.77082)" />
    <path
       style="fill:#000000;fill-opacity:0.76381908;stroke-width:0.99999994;stroke-miterlimit:4;stroke-dasharray:2.99999982, 2.99999982;stroke-dashoffset:0"
       d="m 59.021384,42.177482 c -0.530218,-0.146824 -1.015677,-0.248492 -1.078799,-0.225928 -0.06312,0.02256 -0.114765,-0.0038 -0.114765,-0.05862 0,-0.0548 -0.08263,-0.07803 -0.183626,-0.05162 -0.100994,0.02641 -0.183625,0.01767 -0.183625,-0.01943 0,-0.08602 -0.909431,-0.298822 -1.010386,-0.236429 -0.04163,0.02573 -0.08954,0.0081 -0.106478,-0.03925 -0.06706,-0.187329 -5.076066,-1.082999 -5.549985,-0.992404 -0.120506,0.02304 -0.219101,0.01115 -0.219101,-0.02641 0,-0.03756 -0.309868,-0.09733 -0.688595,-0.132821 -0.378728,-0.03549 -0.688595,-0.08503 -0.688595,-0.110101 0,-0.02506 0.13984,-0.21779 0.310757,-0.428276 1.143553,-1.408304 2.547883,-4.398417 2.645444,-5.6327 0.01524,-0.192817 0.05756,-0.37297 0.09405,-0.40034 0.03648,-0.02737 0.0778,-0.295923 0.09181,-0.596783 0.01401,-0.30086 0.06201,-0.573541 0.106663,-0.60596 0.143124,-0.103912 0.09474,-2.99 -0.07058,-4.210347 -0.08551,-0.631212 -0.189178,-1.159428 -0.230368,-1.173815 -0.04119,-0.01439 -0.05542,-0.128003 -0.03163,-0.252484 0.02614,-0.13675 5.51e-4,-0.226329 -0.06467,-0.226329 -0.05936,0 -0.08201,-0.04194 -0.05034,-0.0932 0.07074,-0.114465 -0.141067,-1.100366 -0.236402,-1.100366 -0.03773,0 -0.047,-0.08263 -0.02059,-0.183626 0.02791,-0.106727 0.0028,-0.183625 -0.05992,-0.183625 -0.05937,0 -0.08371,-0.0392 -0.05411,-0.0871 0.07451,-0.120556 -0.136695,-0.922836 -0.242939,-0.922836 -0.04748,0 -0.06132,-0.04047 -0.03076,-0.08993 0.07244,-0.117215 -0.140728,-0.828202 -0.248315,-0.828202 -0.04548,0 -0.05699,-0.0416 -0.02557,-0.09244 0.03142,-0.05084 -0.358086,-1.383273 -0.865572,-2.960959 -0.507486,-1.577687 -1.04703,-3.346104 -1.198986,-3.929817 -0.932007,-3.58013 -0.679307,-5.863017 0.853957,-7.7145954 0.704159,-0.8503464 1.534522,-1.4408661 3.230094,-2.2971083 0.807952,-0.4080052 1.510319,-0.7854022 1.560815,-0.83866 0.06257,-0.065995 0.05526,-0.076198 -0.02295,-0.032038 -0.06348,0.035837 -0.114766,0.016555 -0.114766,-0.043145 0,-0.062737 -0.0769,-0.08783 -0.183625,-0.05992 -0.100994,0.02641 -0.183625,0.018126 -0.183625,-0.018411 0,-0.095467 -1.353063,-0.4011911 -1.466178,-0.3312819 -0.05205,0.032169 -0.09464,0.020711 -0.09464,-0.025461 0,-0.1064095 -1.431005,-0.4202711 -1.558082,-0.3417331 -0.052,0.032138 -0.09455,0.018971 -0.09455,-0.02926 0,-0.1013147 -1.613156,-0.4174391 -1.737621,-0.3405154 -0.04562,0.028195 -0.09757,0.00741 -0.115436,-0.046196 C 49.070924,4.1134059 48.840484,4.0615036 48.576701,4.051671 48.312917,4.041841 48.096771,3.998117 48.096377,3.954513 48.096009,3.910909 47.97272,3.893276 47.822462,3.915329 47.672203,3.937382 47.537927,3.922139 47.524071,3.881451 47.510211,3.840765 47.241,3.796424 46.925817,3.782915 46.610636,3.769407 46.352412,3.723028 46.351988,3.6798512 c -4.23e-4,-0.043177 -0.166033,-0.062743 -0.368021,-0.04348 -0.201988,0.019263 -0.36725,-0.0014 -0.36725,-0.045906 0,-0.044511 -0.165263,-0.065169 -0.367251,-0.045906 -0.201988,0.019263 -0.367251,0.00827 -0.367251,-0.024421 0,-0.089758 -2.611161,-0.297825 -3.03096,-0.2415182 -0.208015,0.027901 -0.343974,0.013231 -0.314804,-0.033968 0.03001,-0.048562 -0.754222,-0.083079 -1.887558,-0.083079 -1.133335,0 -1.91757,0.034517 -1.887557,0.083079 0.02914,0.047142 -0.105505,0.062041 -0.31126,0.034443 -0.468187,-0.062797 -2.483629,0.1531468 -2.483629,0.2661075 0,0.047449 -0.04563,0.058068 -0.101405,0.023599 -0.113347,-0.070052 -1.459115,0.1378096 -1.45993,0.2254945 -2.75e-4,0.03073 -0.155219,0.062936 -0.344297,0.071569 -0.430187,0.019643 -1.985659,0.470275 -2.027201,0.5872951 -0.01694,0.047711 -0.06342,0.066581 -0.103302,0.041935 -0.10624,-0.06566 -0.921749,0.2290949 -0.921749,0.3331548 0,0.04873 -0.042,0.062644 -0.09333,0.030919 -0.145879,-0.090158 -1.965896,0.8190821 -2.933912,1.4657165 -2.123451,1.4184643 -3.578114,3.0546136 -4.689413,5.2744686 -0.432564,0.864063 -1.09736,2.670339 -1.09736,2.981571 0,0.200293 -0.08475,0.187689 -0.338048,-0.05027 -0.193539,-0.181821 -0.233582,-0.187866 -0.45614,-0.06886 -0.355147,0.189904 -3.187683,2.964101 -3.98601,3.903913 -0.375461,0.442004 -0.785945,0.92153 -0.912188,1.065613 l -0.229531,0.26197 -1.101752,-0.849976 C 13.564932,18.375835 12.467595,17.393364 11.732369,16.660054 10.247531,15.179082 9.5079806,14.169625 9.0119858,12.946836 8.7375221,12.270193 8.7109953,12.118853 8.7095863,11.221588 8.7077243,10.035836 8.8598931,9.5593705 9.529759,8.6534916 11.464381,6.0372462 16.765044,3.9518668 24.178476,2.8904138 c 1.554372,-0.2225543 4.746683,-0.5551454 5.328459,-0.5551454 0.231369,0 0.399918,-0.033577 0.374555,-0.074616 -0.02536,-0.041039 2.461469,-0.070027 5.526295,-0.064419 5.727747,0.010482 6.451652,0.043578 10.20895,0.4667407 7.556858,0.8510851 13.462784,2.659469 16.456669,5.0390025 1.000153,0.7949204 1.733907,1.9587268 2.108745,3.3446824 0.258701,0.956542 0.278822,3.29149 0.0407,4.723317 -0.335049,2.014657 -0.658724,3.186945 -2.228918,8.072696 -0.580231,1.805423 -1.02951,3.323775 -0.998398,3.374115 0.03111,0.05034 0.01935,0.09153 -0.02613,0.09153 -0.103395,0 -0.322123,0.708779 -0.253161,0.820361 0.0279,0.04514 0.01,0.09594 -0.03983,0.112877 -0.135986,0.04624 -0.740167,2.52382 -0.762949,3.128638 -0.01092,0.289899 -0.05396,0.527464 -0.09565,0.527923 -0.04169,4.59e-4 -0.06733,0.176426 -0.05699,0.391039 0.01034,0.214612 -0.0093,0.45641 -0.04359,0.537328 -0.03432,0.08092 -0.04271,0.803944 -0.01866,1.606721 0.02406,0.802779 0.04361,1.799245 0.04345,2.21437 -1.84e-4,0.415123 0.03102,0.805434 0.0693,0.867356 0.03827,0.06192 0.0591,0.310091 0.04628,0.55149 -0.01281,0.241397 0.0082,0.489797 0.0466,0.551997 0.03844,0.0622 0.05899,0.290369 0.04567,0.507039 -0.01332,0.216671 0.01634,0.393946 0.06593,0.393946 0.04958,0 0.07065,0.07457 0.04682,0.165708 -0.02383,0.09114 0.0213,0.721204 0.100297,1.400144 0.079,0.678939 0.14368,1.265421 0.143742,1.303294 1.83e-4,0.114007 -0.273911,0.069 -1.285267,-0.211063 z"
       id="path4600"
       inkscape:connector-curvature="0"
       transform="matrix(0.26458333,0,0,0.26458333,0,283.77082)" />
    <path
       style="fill:#000000;fill-opacity:0.76381908;stroke-width:0.99999994;stroke-miterlimit:4;stroke-dasharray:2.99999982, 2.99999982;stroke-dashoffset:0"
       d="M 11.155622,47.822112 C 7.1117771,47.193108 4.9975485,45.440962 4.5771074,42.370234 4.435179,41.333649 4.6141837,39.248454 4.9361235,38.188116 l 0.083629,-0.275438 0.00949,0.275438 c 0.015673,0.455103 0.2750596,1.558585 0.3741266,1.59161 0.050808,0.01694 0.0676,0.07089 0.037316,0.119888 -0.1220251,0.197441 0.8569222,2.19054 1.0759241,2.19054 0.049821,0 0.066796,0.03849 0.037723,0.08553 -0.029073,0.04704 0.030199,0.143708 0.1317165,0.214813 0.1015174,0.07111 0.1611336,0.152727 0.1324802,0.18138 -0.028653,0.02865 0.274972,0.383147 0.6747231,0.787762 0.7597927,0.769039 1.8010414,1.502877 2.948103,2.077725 0.849144,0.425547 2.778957,1.076171 3.241986,1.093015 0.191842,0.007 0.349036,0.04849 0.349322,0.09225 2.75e-4,0.04376 0.103809,0.05982 0.230051,0.03569 0.126243,-0.02413 0.229532,-0.0036 0.229532,0.04562 0,0.04923 0.122939,0.07146 0.273197,0.04941 0.150259,-0.02205 0.285426,-0.0034 0.300373,0.04143 0.01495,0.04484 0.387396,0.08918 0.827664,0.09854 0.440268,0.0094 0.800889,0.04799 0.801379,0.08587 0.0011,0.08596 2.976901,0.09206 3.062683,0.0063 0.03442,-0.03442 0.289198,-0.05208 0.566177,-0.03925 0.276981,0.01283 0.503601,-0.01175 0.503601,-0.05461 0,-0.04287 0.165263,-0.06218 0.367251,-0.04292 0.201988,0.01926 0.36725,-0.0023 0.36725,-0.048 0,-0.04566 0.144605,-0.06614 0.321345,-0.0455 0.176739,0.02063 0.321344,-0.0012 0.321344,-0.04844 0,-0.04728 0.123947,-0.06776 0.275438,-0.04553 0.151491,0.02223 0.275726,0.0047 0.276077,-0.03885 3.67e-4,-0.0436 0.196185,-0.08836 0.435185,-0.09946 0.239001,-0.0111 0.448821,-0.063 0.466267,-0.115338 0.01744,-0.05234 0.07203,-0.07024 0.121304,-0.03979 0.103239,0.06381 1.730879,-0.320536 1.731195,-0.408795 9.1e-5,-0.03222 0.128424,-0.0632 0.285132,-0.06885 0.156707,-0.0056 0.311547,-0.04696 0.344087,-0.09181 0.03254,-0.04485 0.162455,-0.08804 0.288698,-0.09597 0.342441,-0.02153 2.63494,-0.896262 3.87656,-1.479154 1.067292,-0.501052 1.087979,-0.516513 1.032023,-0.771283 l -0.0571,-0.259982 h 0.680588 c 0.374323,0 0.709096,-0.02851 0.743939,-0.06335 0.03484,-0.03484 0.276246,-0.05205 0.536451,-0.03824 0.353803,0.01878 0.659159,0.126197 1.210954,0.425989 0.446923,0.242814 0.6849,0.419368 0.603556,0.447773 -0.07386,0.02579 -1.001927,0.293671 -2.062363,0.595285 -6.53389,1.858399 -11.106192,2.840006 -15.215339,3.266512 -1.709922,0.177481 -5.470066,0.175345 -6.621532,-0.0038 z"
       id="path4602"
       inkscape:connector-curvature="0"
       transform="matrix(0.26458333,0,0,0.26458333,0,283.77082)" />
    <path
       style="fill:#e6e6e6;fill-opacity:0.76381908;stroke-width:0.99999994;stroke-miterlimit:4;stroke-dasharray:2.99999982, 2.99999982000000021;stroke-dashoffset:0"
       d="m 58.011445,41.897619 c -3.209149,-0.815939 -4.453642,-1.052542 -7.712264,-1.466257 -0.479721,-0.06091 -0.904213,-0.139151 -0.943314,-0.173878 -0.0391,-0.03473 0.06911,-0.246765 0.240481,-0.471196 1.181987,-1.548002 2.286598,-3.954278 2.618977,-5.705158 0.368731,-1.94238 0.409927,-2.519663 0.298873,-4.188135 -0.180101,-2.705837 -0.562725,-4.293777 -2.536425,-10.526477 -1.165886,-3.681723 -1.449571,-4.994111 -1.448772,-6.702324 8.27e-4,-1.758258 0.480008,-3.0938253 1.515463,-4.223842 0.728724,-0.7952736 1.385052,-1.2511644 3.100909,-2.1539163 0.782703,-0.411798 1.458214,-0.7834319 1.501136,-0.8258531 C 54.729231,5.3788243 54.136622,5.1847927 53.090732,4.9511904 50.196584,4.3047755 49.524078,4.1728613 47.498894,3.8543319 43.783268,3.2699227 41.563618,3.107211 38.501253,3.1947592 34.371206,3.3128307 31.108718,4.0613407 28.316032,5.5315461 c -2.507331,1.3199804 -4.337378,3.0517313 -5.645535,5.3423009 -0.547813,0.959214 -1.314033,2.792386 -1.433646,3.429984 -0.06857,0.365478 -0.171687,0.411867 -0.418681,0.188341 -0.104198,-0.0943 -0.232349,-0.123451 -0.361906,-0.08233 -0.276377,0.08772 -3.448584,3.216569 -4.400485,4.34034 L 15.278096,19.66828 14.546953,19.104243 C 12.960989,17.880756 11.020601,15.992733 10.095886,14.773293 9.4307425,13.896154 8.8970785,12.764889 8.7743254,11.971837 8.6369541,11.084343 8.7949544,9.9287312 9.1404617,9.2939204 9.7371941,8.1975265 11.308084,6.8701376 13.038524,6.000089 15.934627,4.5439571 20.588917,3.3289099 25.463854,2.7563371 29.583288,2.2725 30.148655,2.2433939 35.398642,2.2448762 c 5.222902,0.00147 6.625262,0.056111 9.483591,0.3694863 7.570766,0.830026 13.038713,2.352109 16.388562,4.5619962 1.134752,0.7485933 1.86861,1.5576798 2.377414,2.6211283 0.596962,1.247702 0.653281,1.573376 0.646577,3.738927 -0.0084,2.702758 -0.198057,3.557906 -2.209716,9.961675 -1.629682,5.18781 -1.726648,5.512401 -1.962957,6.57094 -0.601441,2.694152 -0.603776,5.181326 -0.01003,10.689841 0.09253,0.858449 0.1432,1.58928 0.112599,1.624072 -0.0306,0.03479 -1.026554,-0.183605 -2.213233,-0.485323 z"
       id="path4604"
       inkscape:connector-curvature="0"
       transform="matrix(0.26458333,0,0,0.26458333,0,283.77082)" />
    <path
       style="fill:#e6e6e6;fill-opacity:0.76381908;stroke-width:0.99999994;stroke-miterlimit:4;stroke-dasharray:2.99999982, 2.99999982;stroke-dashoffset:0"
       d="M 12.196923,47.873428 C 9.042119,47.681966 6.4836269,46.493147 5.4192577,44.724144 4.6357977,43.422017 4.3942323,41.66544 4.7065247,39.541405 c 0.2025119,-1.377371 0.2818961,-1.584107 0.3587122,-0.934177 0.07919,0.670011 0.5589826,2.12887 0.8990657,2.7337 0.439089,0.780909 1.2103719,1.773608 1.7927888,2.307454 2.5347706,2.323385 6.5502626,3.528103 11.2339696,3.37039 3.874279,-0.130457 7.878152,-1.141042 11.692879,-2.951305 0.681846,-0.323566 0.718502,-0.356094 0.670693,-0.595143 l -0.05057,-0.25287 1.049059,-0.05622 c 0.810542,-0.04344 1.137488,-0.02502 1.437991,0.081 0.452237,0.159558 1.175356,0.568094 1.175356,0.664032 0,0.03626 -0.939932,0.329963 -2.088738,0.652665 -9.879301,2.775121 -15.280447,3.640235 -20.680804,3.312494 z"
       id="path4608"
       inkscape:connector-curvature="0"
       transform="matrix(0.26458333,0,0,0.26458333,0,283.77082)" />
    <path
       style="fill:#0000ff;fill-opacity:0.76381908;stroke-width:0.99999994;stroke-miterlimit:4;stroke-dasharray:2.99999982, 2.99999982000000021;stroke-dashoffset:0"
       d="M 12.472361,49.007735 C 8.0426627,48.583238 5.5601298,47.345757 4.3072966,44.937653 3.6785067,43.729039 3.5231996,43.009218 3.5245478,41.309746 c 0.00128,-1.611706 0.120213,-2.414598 0.6093202,-4.113344 0.2184957,-0.75887 0.3167563,-0.979733 0.418506,-0.940688 0.6024751,0.231191 0.5624755,0.278953 0.7652853,-0.913791 0.5478888,-3.222189 3.0653082,-7.295801 6.9197597,-11.197348 1.024492,-1.037011 1.331504,-1.413952 1.747718,-2.145806 0.277699,-0.488295 0.575931,-0.999758 0.662737,-1.136584 0.08681,-0.136824 0.138946,-0.261972 0.115864,-0.278106 C 13.478931,19.686057 11.668299,18.141727 10.621736,17.051271 7.6125038,13.915829 6.857387,11.055684 8.3626734,8.4946527 8.7799476,7.7847198 9.9836523,6.6022879 10.911546,5.9908257 12.956262,4.6434016 15.841531,3.5315629 19.428293,2.708897 c 9.423594,-2.16141192 23.198253,-2.16023566 32.982579,0.00282 3.15147,0.6967055 5.65483,1.5290915 7.728953,2.5699349 3.690448,1.8519535 5.129851,3.9023696 5.280848,7.5225181 0.115346,2.765428 -0.423084,5.229391 -2.577613,11.795674 -1.113427,3.393349 -1.552358,4.902447 -1.864837,6.411535 -0.233959,1.129881 -0.250025,1.355977 -0.245734,3.458327 0.0047,2.320191 0.08731,3.546275 0.414052,6.147821 0.226481,1.803263 0.200574,2.310265 -0.13521,2.646047 -0.347262,0.347262 -0.816819,0.30642 -2.816261,-0.244963 -2.814414,-0.776128 -5.114377,-1.217874 -8.171232,-1.569426 -0.883644,-0.101622 -1.620886,-0.227549 -1.638315,-0.279837 -0.01743,-0.05229 -0.32148,0.178305 -0.675669,0.512428 -3.189633,3.008939 -6.962232,3.947996 -10.853339,2.701564 -0.493218,-0.157992 -0.912965,-0.271053 -0.932772,-0.251246 -0.01981,0.01981 0.0012,0.165837 0.04673,0.324514 0.06756,0.235577 0.05464,0.297131 -0.07043,0.335524 -4.580555,1.406109 -10.461537,2.87633 -13.970978,3.492686 -3.52296,0.61873 -7.428455,0.917288 -9.456705,0.722921 z m 5.862266,-1.127185 c 4.084962,-0.478789 8.547492,-1.447558 14.446316,-3.136144 1.429273,-0.409141 2.627693,-0.761786 2.663155,-0.783655 0.03546,-0.02187 -0.33638,-0.248816 -0.826315,-0.504328 l -0.890789,-0.464568 -1.351292,0.06437 -1.351294,0.06437 0.130707,0.252756 0.130705,0.252758 -0.982917,0.466426 C 20.779365,48.611768 10.149388,47.61962 6.4248713,41.863883 5.6518516,40.669285 5.1404358,39.046135 5.1220846,37.729052 l -0.00768,-0.550876 -0.1241512,0.337676 c -0.068283,0.185722 -0.2191948,0.7848 -0.3353592,1.331284 -0.2775766,1.305832 -0.2996622,3.514368 -0.044367,4.436583 0.3843829,1.38852 1.3663081,2.685328 2.5664334,3.389435 1.1335847,0.665068 2.9482044,1.185577 4.8150554,1.381161 1.229435,0.128803 4.533418,0.03829 6.342606,-0.173765 z m 1.804092,-1.934295 c 2.279847,-0.206983 4.417608,-0.660702 6.610512,-1.403016 1.107771,-0.37499 3.04334,-1.153184 3.343716,-1.34434 0.147588,-0.09392 -0.19763,-0.149497 -1.461556,-0.235289 -4.398937,-0.298586 -8.968682,-1.975266 -11.889741,-4.362452 -2.643321,-2.16021 -4.237099,-4.846456 -4.688637,-7.9025 -0.233118,-1.57777 -0.0739,-3.578988 0.415798,-5.225991 0.05245,-0.176406 0.09536,-0.33637 0.09536,-0.355474 0,-0.0191 -0.265078,0.251572 -0.589062,0.601505 -3.3227072,3.588831 -5.2391045,6.889044 -5.7921577,9.974631 -0.2452212,1.368135 -0.1634932,2.86555 0.2180979,3.995978 0.1593896,0.472177 0.4614605,1.152428 0.6712687,1.51167 0.4417356,0.756355 1.6143868,1.976861 2.4161286,2.514727 2.6461455,1.775224 6.5832205,2.59979 10.6502695,2.230551 z m 22.264572,-2.205757 c 3.111042,-0.794196 6.150942,-3.542253 7.856531,-7.102277 0.881395,-1.839709 1.231958,-3.467475 1.232554,-5.723103 7.35e-4,-2.76302 -0.417185,-4.720862 -2.120297,-9.933129 -1.55563,-4.760908 -1.820526,-5.869458 -1.88887,-7.904638 -0.0655,-1.950395 0.172028,-2.997965 0.993067,-4.3797779 0.42909,-0.7221616 1.543249,-1.8250052 2.44264,-2.4178336 0.4166,-0.2745994 0.757455,-0.5244783 0.757455,-0.5552865 0,-0.063886 -3.437657,-0.7413871 -4.820165,-0.9499688 -5.310336,-0.801181 -10.073597,-0.7693239 -13.725994,0.0918 -5.469247,1.2894823 -9.128163,4.3498959 -10.6401,8.8996618 -1.423464,4.28353 -0.957241,9.83482 1.28546,15.305866 2.119688,5.170958 5.451664,9.620938 9.247846,12.350852 0.437463,0.314589 0.867691,0.572812 0.956061,0.573829 0.08837,10e-4 0.160672,0.03961 0.160672,0.08576 0,0.119684 1.011413,0.668623 1.937622,1.051633 0.888382,0.367369 1.89902,0.661931 2.706699,0.788898 0.88,0.138336 2.727394,0.04528 3.618819,-0.182286 z m 17.995283,-1.449603 c 0,-0.192574 -0.06264,-0.822639 -0.139193,-1.400143 -0.41077,-3.098634 -0.593076,-6.763955 -0.417554,-8.395022 0.216177,-2.008857 0.701493,-3.855582 2.255983,-8.584484 1.902727,-5.788267 2.433316,-8.097843 2.431641,-10.584567 C 64.527546,10.499178 63.763307,8.8196109 61.812407,7.3554367 55.960169,2.963261 39.603718,0.83964291 25.326135,2.6182899 16.898461,3.6681775 11.053931,5.9540897 9.1482563,8.9457806 8.3707964,10.166304 8.3292002,11.798346 9.0361034,13.346152 c 0.7833943,1.715287 2.8329836,3.925868 5.5313416,5.965819 0.42009,0.317586 0.776101,0.563071 0.791136,0.54552 0.01504,-0.01755 0.370371,-0.460481 0.789636,-0.98429 0.852901,-1.065574 2.491846,-2.753812 3.663678,-3.773869 l 0.77493,-0.674561 0.295374,0.341698 0.295374,0.341697 0.06408,-0.303859 c 0.312643,-1.482564 1.275465,-3.637631 2.217856,-4.9641851 0.709285,-0.9984221 2.174203,-2.4532671 3.198093,-3.1761006 1.017313,-0.7181915 3.072527,-1.735285 4.360921,-2.1581524 4.729201,-1.5521838 10.821784,-1.6329455 18.260921,-0.2420618 1.746764,0.3265896 5.15131,1.1105096 5.15131,1.1861241 0,0.03019 -0.455647,0.2573539 -1.012549,0.5048091 -2.570985,1.1423981 -4.17617,2.6689723 -4.786252,4.5518557 -0.247482,0.763798 -0.329174,2.530711 -0.17139,3.706966 0.162299,1.209902 0.612663,2.893554 1.501175,5.61202 1.417067,4.335619 1.775123,5.611541 2.190019,7.804077 0.178136,0.941366 0.20883,1.409158 0.210849,3.213443 0.0026,2.331995 -0.114387,3.133618 -0.7019,4.809194 -0.513233,1.463729 -1.507936,3.235898 -2.511631,4.474736 l -0.231947,0.286288 0.668074,0.06244 c 2.519658,0.23548 6.048992,0.889932 8.655778,1.605058 1.562473,0.428637 1.927013,0.524551 2.088738,0.549565 0.03787,0.0059 0.06886,-0.146911 0.06886,-0.339485 z M 32.39571,42.143681 c 0,-0.02106 -0.361512,-0.320106 -0.803361,-0.664554 -0.964182,-0.751638 -2.678748,-2.44458 -3.565509,-3.520543 -3.664294,-4.446115 -6.197097,-10.01364 -7.028564,-15.449961 -0.261528,-1.709929 -0.286504,-4.759145 -0.05088,-6.211048 0.08544,-0.526487 0.155352,-0.995544 0.155352,-1.042347 0,-0.132872 -1.220485,0.962262 -2.436766,2.186497 -3.065132,3.085175 -4.930327,6.243069 -5.61074,9.499339 -0.198763,0.951224 -0.225756,3.257547 -0.04782,4.085663 0.520761,2.423608 1.55135,4.248862 3.416423,6.050754 3.36824,3.254141 8.492378,5.027817 14.709434,5.091546 0.694333,0.0071 1.262424,-0.0043 1.262424,-0.02535 z"
       id="path4610"
       inkscape:connector-curvature="0"
       transform="matrix(0.26458333,0,0,0.26458333,0,283.77082)" />
    <path
       style="fill:#0000ff;fill-opacity:0.76381908;stroke-width:0.26458332;stroke-miterlimit:4;stroke-dasharray:0.79374994, 0.79374994;stroke-dashoffset:0"
       id="path4614"
       d="m 3.3309327,286.45309 c 0.116169,0.024 0.2313064,0.0527 0.3472741,0.0777 0.1392269,0.0357 0.2820011,0.051 0.425075,0.06 0.086554,0.005 0.1732466,0.005 0.2598989,0.004 0.034039,-0.003 0.069589,0.005 0.1028155,-0.005 0.016579,-0.005 0.032427,-0.0124 0.048999,-0.0175 0.1350063,-0.0482 0.4010758,-0.21393 -0.131786,0.0912 0.065577,-0.0416 0.1278125,-0.0882 0.1896147,-0.1351 0.064675,-0.0456 0.1337381,-0.0845 0.2000742,-0.12763 0.061508,-0.0403 0.1198547,-0.0852 0.1789287,-0.12901 0.1972048,-0.12708 0.6784636,-0.39403 0.07168,-0.0471 -0.052351,0.0299 0.045881,-0.0292 0.054279,-0.0352 0.1826974,-0.12582 0.2571083,-0.19578 0.4335113,-0.20255 0.046706,-0.006 0.090288,0.004 0.1354778,0.0134 0.04328,0.0125 0.08939,0.0192 0.1316638,0.035 0.037612,0.0129 0.076223,0.026 0.1106122,0.0463 0.032264,0.0167 0.066816,0.0297 0.097744,0.0488 0.030389,0.0183 0.059515,0.0383 0.090355,0.0561 0.034578,0.0118 0.066581,0.0283 0.102598,0.036 0.036012,0.0124 0.069242,0.031 0.1051483,0.0435 0.03244,0.0164 0.063848,0.0358 0.098035,0.0485 0.00582,10e-4 0.011639,0.003 0.017457,0.004 0,0 -0.2985236,0.20334 -0.2985236,0.20334 v 0 c -0.00651,-0.002 -0.013025,-0.005 -0.019537,-0.007 -0.032674,-0.0154 -0.064469,-0.0327 -0.097395,-0.0476 -0.033818,-0.0145 -0.067312,-0.0298 -0.1027109,-0.0402 -0.037291,-0.0116 -0.073651,-0.0271 -0.1086049,-0.0443 -0.029738,-0.0187 -0.05932,-0.0376 -0.089695,-0.0551 -0.032436,-0.016 -0.064775,-0.032 -0.097182,-0.0481 -0.034813,-0.0158 -0.069917,-0.0307 -0.106694,-0.0414 -0.042946,-0.0114 -0.085959,-0.023 -0.1295614,-0.0317 -0.04296,-0.009 -0.085761,-0.0102 -0.1294958,-0.006 -0.1426811,0.0144 -0.3353367,0.1625 0.1929362,-0.14331 -0.023132,0.0148 -0.011792,0.007 -0.033866,0.0251 -0.1118021,0.0758 -0.2337665,0.13553 -0.3503854,0.20376 -0.093866,0.0549 0.1875894,-0.11008 0.2817974,-0.1644 0.00902,-0.005 -0.01746,0.0113 -0.026191,0.017 -0.058672,0.0453 -0.1190828,0.0884 -0.1791001,0.13183 -0.066208,0.043 -0.1325595,0.0854 -0.2009799,0.12485 -0.061009,0.048 -0.123543,0.0942 -0.1877682,0.13779 -0.1598705,0.0934 -0.3103737,0.20205 -0.4871341,0.25877 -0.051893,0.0155 -0.1039898,0.0163 -0.157915,0.0141 -0.085575,-9e-4 -0.1711365,-0.004 -0.2565019,-0.01 -0.1438725,-0.0114 -0.2870859,-0.0294 -0.4273677,-0.0645 -0.1166066,-0.0254 -0.2328278,-0.0546 -0.3511952,-0.0704 0,0 0.2936155,-0.2084 0.2936155,-0.2084 z"
       inkscape:connector-curvature="0" />
    <path
       style="fill:#0000ff;fill-opacity:0.76381908;stroke-width:0.26458332;stroke-miterlimit:4;stroke-dasharray:0.79374994, 0.79374994;stroke-dashoffset:0"
       id="path4616"
       d="m 12.804249,286.71519 c 0.05836,0.051 0.117862,0.1002 0.173378,0.15436 0.04852,0.0465 0.09253,0.0978 0.143447,0.14178 0.05129,0.0376 0.104631,0.0695 0.162357,0.096 0.09413,0.0462 0.191807,0.0827 0.291432,0.11488 0.123864,0.0462 0.255403,0.0582 0.385257,0.0757 0.106696,0.0149 0.214219,0.0216 0.32182,0.0247 0.07812,0.004 0.156759,-0.002 0.233137,-0.0189 0.0671,-0.0131 0.134309,-0.0276 0.199829,-0.0471 0.06835,-0.0207 0.136603,-0.0418 0.20483,-0.063 0.08641,-0.0211 0.173228,-0.0407 0.2613,-0.0535 0.06126,-0.0188 0.12629,-0.0211 0.187865,-0.0374 0.05177,-0.015 0.105218,-0.019 0.158776,-0.0208 0.07433,-0.002 0.148704,-10e-4 0.223055,-0.002 0.06208,-0.002 0.122793,-0.002 0.182281,0.0175 0.04865,0.0162 0.0957,0.0366 0.1422,0.0581 0.03725,0.0248 0.07458,0.0498 0.109016,0.0784 0.03563,0.0232 0.06023,0.0586 0.08439,0.0928 0.02465,0.0359 0.04605,0.0732 0.06437,0.11281 0.01514,0.0385 0.03194,0.0764 0.05025,0.11346 0.01771,0.0335 0.03039,0.0689 0.04497,0.10371 0.01082,0.0342 0.02762,0.0645 0.04695,0.0944 0.01405,0.0154 0.007,0.007 0.02108,0.0252 0,0 -0.310477,0.18524 -0.310477,0.18524 v 0 c -0.01439,-0.018 -0.0068,-0.009 -0.02273,-0.0281 -0.02051,-0.0316 -0.0384,-0.0638 -0.04991,-0.0999 -0.01474,-0.034 -0.0261,-0.0694 -0.04394,-0.10208 -0.01828,-0.0375 -0.03526,-0.0756 -0.05018,-0.1145 -0.01727,-0.0375 -0.03786,-0.0727 -0.06125,-0.1067 -0.02289,-0.0314 -0.04574,-0.0631 -0.07892,-0.0846 -0.03329,-0.0258 -0.06775,-0.0503 -0.104424,-0.0711 -0.04459,-0.0211 -0.09075,-0.0395 -0.138105,-0.0534 -0.05784,-0.0125 -0.11637,-0.0113 -0.175317,-0.0107 -0.07426,-1.1e-4 -0.148581,-1.5e-4 -0.222762,0.004 -0.05274,0.004 -0.104681,0.0125 -0.155983,0.0256 -0.06259,0.0105 -0.124934,0.022 -0.187203,0.0343 -0.08701,0.0143 -0.173379,0.0335 -0.258189,0.0576 -0.06886,0.021 -0.137031,0.0443 -0.2066,0.0628 -0.06673,0.0165 -0.133345,0.0334 -0.201254,0.0445 -0.07846,0.0118 -0.157428,0.0175 -0.236769,0.0117 -0.107409,-0.005 -0.214621,-0.014 -0.321108,-0.0294 -0.131616,-0.0174 -0.263635,-0.0354 -0.389252,-0.0807 -0.101266,-0.0329 -0.200476,-0.071 -0.296896,-0.11637 -0.06031,-0.0282 -0.116989,-0.0625 -0.169005,-0.10424 -0.04989,-0.0458 -0.09544,-0.0961 -0.143851,-0.14344 -0.05427,-0.053 -0.1112,-0.10322 -0.171887,-0.1488 0,0 0.304032,-0.19329 0.304032,-0.19329 z"
       inkscape:connector-curvature="0" />
    <path
       style="fill:#0000ff;fill-opacity:0.76381908;stroke-width:0.26458332;stroke-miterlimit:4;stroke-dasharray:0.79374994, 0.79374994;stroke-dashoffset:0"
       id="path4618"
       d="m 13.70218,290.01441 c 0.09666,0.0585 0.196602,0.11128 0.294885,0.16695 0.10511,0.0626 0.212828,0.11969 0.323614,0.17138 0.08019,0.0413 0.166101,0.0688 0.253995,0.088 0.07541,0.0142 0.152209,0.0159 0.228688,0.0171 0.08747,8e-4 0.174942,5.1e-4 0.26241,-7e-5 0.06186,0.002 0.124663,-0.007 0.18593,0.004 0.04774,0.004 0.09206,0.0194 0.137852,0.0319 0.0426,0.01 0.08651,0.0109 0.130025,0.0119 0.04766,0.003 0.09608,-0.004 0.142992,0.005 0.04358,0.006 0.07093,0.0336 0.09894,0.0643 0.01523,0.0214 0.0082,0.01 0.02087,0.034 0,0 -0.313754,0.1794 -0.313754,0.1794 v 0 c -0.0094,-0.0182 -0.004,-0.01 -0.01628,-0.026 -0.02329,-0.0257 -0.04865,-0.0413 -0.08449,-0.0436 -0.04684,-0.002 -0.09382,-9e-5 -0.140685,-0.002 -0.04563,-0.002 -0.09148,-0.005 -0.135443,-0.0189 -0.04377,-0.0132 -0.08804,-0.0229 -0.133668,-0.0274 -0.06045,-0.003 -0.121077,-5e-4 -0.181584,-0.002 -0.08766,-1.5e-4 -0.175331,5e-4 -0.26299,-4.5e-4 -0.0781,-0.002 -0.156349,-0.006 -0.232765,-0.0235 -0.08892,-0.0224 -0.175524,-0.0521 -0.256755,-0.0953 -0.110309,-0.0533 -0.217168,-0.11277 -0.322903,-0.17469 -0.09989,-0.0553 -0.20033,-0.10966 -0.301158,-0.16324 0,0 0.302279,-0.1965 0.302279,-0.1965 z"
       inkscape:connector-curvature="0" />
    <path
       style="fill:#0000ff;fill-opacity:0.76381908;stroke-width:0.26458332;stroke-miterlimit:4;stroke-dasharray:0.79374994, 0.79374994;stroke-dashoffset:0"
       id="path4620"
       d="m 13.606864,293.71995 c 0.16931,-0.0488 0.337285,-0.10207 0.504102,-0.15878 0.116906,-0.041 0.23064,-0.0904 0.345644,-0.13637 0.05966,-0.0234 0.120015,-0.0465 0.181959,-0.0633 0.04948,-0.0119 0.100462,-0.0134 0.151086,-0.0143 0.04858,-4.8e-4 0.09716,-1.2e-4 0.145735,4e-5 0.04361,0.004 0.07626,0.0265 0.110834,0.0504 0.03223,0.0292 0.06517,0.0577 0.09687,0.0876 0.03431,0.0376 0.06892,0.0747 0.102836,0.1126 0.02713,0.0275 0.05635,0.0531 0.08231,0.0817 0.02019,0.0283 0.03902,0.058 0.0634,0.0829 0.02242,0.0252 0.04484,0.051 0.07025,0.0734 0.03109,0.0232 0.06075,0.0483 0.09184,0.0716 0,0 -0.305663,0.19257 -0.305663,0.19257 v 0 c -0.03102,-0.025 -0.06318,-0.0485 -0.09375,-0.0741 -0.02493,-0.0242 -0.04903,-0.0494 -0.07169,-0.0757 -0.0231,-0.0261 -0.04316,-0.0545 -0.06327,-0.0829 -0.02686,-0.028 -0.05509,-0.0546 -0.08189,-0.0827 -0.03333,-0.0369 -0.06605,-0.0743 -0.100468,-0.11017 -0.03119,-0.0283 -0.06335,-0.0553 -0.09557,-0.0824 -0.02969,-0.0206 -0.0606,-0.034 -0.09767,-0.033 -0.04833,-1.3e-4 -0.09668,-5e-4 -0.144991,9.8e-4 -0.04899,0.002 -0.09811,0.006 -0.145115,0.0214 -0.06019,0.0195 -0.120054,0.0403 -0.17843,0.0648 -0.112408,0.0451 -0.225057,0.0899 -0.339645,0.12914 -0.170103,0.0564 -0.34157,0.10862 -0.511453,0.16562 0,0 0.282737,-0.22089 0.282737,-0.22089 z"
       inkscape:connector-curvature="0" />
    <path
       style="fill:#0000ff;fill-opacity:0.76381908;stroke-width:0.26458332;stroke-miterlimit:4;stroke-dasharray:0.79374994, 0.79374994;stroke-dashoffset:0"
       id="path4622"
       d="m 5.5395481,287.60774 c -0.076044,-10e-4 -0.1521089,-8.2e-4 -0.228161,-6.9e-4 -0.060029,2.1e-4 -0.1200571,4.3e-4 -0.1800858,5.3e-4 -0.049183,8e-5 -0.098366,9e-5 -0.1475488,9e-5 -0.048174,-0.002 -0.096809,0.006 -0.142435,0.0213 -0.048885,0.01 -0.092692,0.0305 -0.136879,0.0523 -0.1174253,0.0741 0.028003,-0.018 0.270497,-0.1542 0.00633,-0.004 -0.011446,0.009 -0.01723,0.0133 -0.016227,0.0123 -0.033253,0.0232 -0.049592,0.0354 -0.029055,0.0227 -0.059277,0.0434 -0.09059,0.063 -0.1350475,0.0676 -0.2779953,0.19325 -0.4382336,0.22712 -0.048733,0.008 -0.098324,0.009 -0.1476356,0.009 -0.1054169,-0.006 -0.2096402,-0.0369 -0.3117879,-0.0626 -0.2199966,-0.0633 -0.4389692,-0.13016 -0.6597962,-0.19061 0,0 0.2865035,-0.19632 0.2865035,-0.19632 v 0 c 0.2197931,0.0643 0.4389448,0.13121 0.6608233,0.18802 0.1034743,0.0227 0.2087571,0.051 0.315399,0.0491 0.047852,-0.001 0.096129,-0.003 0.1425368,-0.0162 0.1342351,-0.0425 0.3558752,-0.19495 -0.1842174,0.12348 0.030503,-0.021 0.064356,-0.0365 0.090753,-0.0625 0.069308,-0.0426 -0.0383,0.0247 0.032192,-0.0235 0.1219113,-0.0834 0.2504326,-0.16033 0.3823457,-0.22775 0.044919,-0.0212 0.092811,-0.034 0.1406872,-0.0468 0.048987,-0.01 0.098048,-0.0169 0.1482322,-0.0138 0.049102,10e-6 0.098203,10e-6 0.1473047,9e-5 0.059532,1.2e-4 0.1190625,3.5e-4 0.1785935,5.3e-4 0.076674,1.5e-4 0.1533588,5.8e-4 0.2300245,-6.9e-4 0,0 -0.2916994,0.21194 -0.2916994,0.21194 z"
       inkscape:connector-curvature="0" />
    <path
       style="fill:#0000ff;fill-opacity:0.76381908;stroke-width:0.26458332;stroke-miterlimit:4;stroke-dasharray:0.79374994, 0.79374994;stroke-dashoffset:0"
       id="path4624"
       d="m 3.8129109,285.37956 c 0.1083167,0.004 0.2126372,-0.0296 0.3135254,-0.0649 0.1578854,-0.0553 0.3117707,-0.12094 0.4611159,-0.19621 0.1419246,-0.0715 0.2824937,-0.14562 0.4264355,-0.21302 0.1048539,-0.0477 0.2077884,-0.0992 0.3136797,-0.14452 0.058283,-0.0272 0.1176636,-0.0538 0.179514,-0.0718 0.045402,-0.008 0.084215,-0.0337 0.1277326,-0.0477 0.046259,-0.0124 0.094334,-0.0138 0.1419172,-0.0149 0.050323,-0.003 0.1007991,0.006 0.1486808,0.0212 0.049542,0.0162 0.097812,0.0362 0.1467659,0.0542 0.047235,0.0151 0.093711,0.0317 0.1394674,0.0507 0.039116,0.0215 0.08161,0.0345 0.1180883,0.0606 0.031262,0.0182 0.060362,0.0386 0.095686,0.048 0.035175,0.0159 0.070367,0.0295 0.1035934,0.0495 0.037686,0.0213 0.07424,0.045 0.1110689,0.068 0.042216,0.0262 0.080965,0.0577 0.1237988,0.083 0.052904,0.0319 0.1099148,0.0573 0.16886,0.076 0.078073,0.0312 0.1622634,0.0352 0.2442226,0.0486 0.077536,0.0132 0.1559473,0.0191 0.2344518,0.0222 0.053643,0.002 0.1077722,0.006 0.1575911,-0.0171 0.1092343,-0.0582 0.2516341,-0.1447 -0.2566109,0.1478 -0.00511,0.003 0.010332,-0.006 0.01511,-0.009 0.012663,-0.009 0.017801,-0.0155 0.028573,-0.0267 0.00426,-0.005 0.00852,-0.0109 0.012777,-0.0164 0,0 0.3323013,-0.14111 0.3323013,-0.14111 v 0 c -0.00448,0.005 -0.00896,0.01 -0.013444,0.0149 -0.084183,0.13714 -0.2554205,0.19821 -0.4037674,0.25149 -0.054295,0.0107 -0.1088495,0.01 -0.1639305,0.006 -0.078819,-0.005 -0.1573739,-0.013 -0.2352971,-0.026 -0.08404,-0.012 -0.1687473,-0.0222 -0.2485575,-0.0531 -0.060694,-0.0216 -0.1203492,-0.0476 -0.1751658,-0.0817 -0.041664,-0.0269 -0.081146,-0.0571 -0.1236708,-0.0827 -0.037056,-0.022 -0.072673,-0.0465 -0.1108959,-0.0665 -0.032452,-0.0167 -0.066028,-0.0306 -0.1000217,-0.0439 -0.035769,-0.0144 -0.068143,-0.0354 -0.1007832,-0.0557 -0.036393,-0.0216 -0.076117,-0.0364 -0.1139942,-0.0552 -0.045211,-0.0189 -0.092175,-0.0332 -0.1382223,-0.05 -0.047807,-0.0184 -0.095659,-0.0373 -0.1449409,-0.0513 -0.047015,-0.0103 -0.094218,-0.0169 -0.1424775,-0.0122 -0.045922,0.003 -0.092185,0.007 -0.1352797,0.0241 -0.041919,0.0177 -0.083508,0.0358 -0.1280617,0.0462 -0.059444,0.0216 -0.1177658,0.0461 -0.1751534,0.0727 -0.1039032,0.0459 -0.2062467,0.0951 -0.3094019,0.14257 -0.1427154,0.0682 -0.282965,0.14136 -0.4243864,0.2122 -0.1510744,0.0736 -0.306138,0.13861 -0.4650906,0.19338 -0.1062697,0.0348 -0.2145155,0.0644 -0.3275031,0.0609 0,0 0.2916994,-0.21194 0.2916994,-0.21194 z"
       inkscape:connector-curvature="0" />
    <path
       style="fill:#0000ff;fill-opacity:0.76381908;stroke-width:0.26458332;stroke-miterlimit:4;stroke-dasharray:0.79374994, 0.79374994;stroke-dashoffset:0"
       id="path4626"
       d="m 13.750884,285.80198 c 0.164791,0.0483 0.333642,0.0806 0.501913,0.11406 0.206889,0.0437 0.414269,0.084 0.62446,0.10777 0.09212,0.0102 0.184719,0.0129 0.27731,0.0132 0.07182,0.002 0.144236,-0.005 0.214297,-0.0209 0.05728,-0.0186 0.112119,-0.0439 0.169631,-0.0615 0.04977,-0.008 0.09847,-0.0202 0.147995,-0.0298 0.04865,-0.008 0.09809,-0.01 0.147342,-0.0107 0.04868,-5.6e-4 0.09736,-3.4e-4 0.146037,-2.5e-4 0.0276,0.002 0.04757,0.0133 0.06905,0.0292 0,0 -0.303583,0.19533 -0.303583,0.19533 v 0 c -0.01842,-0.009 -0.03603,-0.0139 -0.05706,-0.0127 -0.04847,-5e-5 -0.09695,-2.4e-4 -0.145401,10e-4 -0.04814,0.002 -0.09637,0.005 -0.14349,0.0157 -0.04844,0.0108 -0.09783,0.0176 -0.145114,0.0329 -0.05653,0.0206 -0.112527,0.0437 -0.171446,0.0568 -0.07246,0.0113 -0.145474,0.0183 -0.21891,0.0154 -0.09147,-0.002 -0.182717,-0.009 -0.273426,-0.021 -0.208392,-0.0286 -0.414017,-0.0723 -0.620168,-0.11367 -0.172571,-0.033 -0.345203,-0.0657 -0.516146,-0.10644 0,0 0.296706,-0.20466 0.296706,-0.20466 z"
       inkscape:connector-curvature="0" />
    <path
       style="fill:#0000ff;fill-opacity:0.76381908;stroke-width:0.26458332;stroke-miterlimit:4;stroke-dasharray:0.79374994, 0.79374994;stroke-dashoffset:0"
       id="path4628"
       d="m 14.044452,288.50757 c 0.150437,0.0756 0.302493,0.14799 0.452723,0.22405 0.15052,0.0762 0.303704,0.14742 0.46349,0.20198 0.101863,0.0331 0.177721,0.0459 0.281761,0.0183 0.09254,-0.0319 0.179333,-0.0781 0.266472,-0.12225 0.111883,-0.0571 0.327196,-0.17881 -0.171161,0.1021 -0.01287,0.007 0.02501,-0.0157 0.03746,-0.0237 0.0133,-0.009 0.05046,-0.0328 0.06431,-0.0418 0.146568,-0.0978 0.289865,-0.22191 0.466006,-0.25169 0.04771,-0.007 0.09425,-0.008 0.137876,0.0144 0.03664,0.0145 0.05514,0.0502 0.07998,0.0782 0.0117,0.0143 0.01961,0.0307 0.02997,0.0459 0,0 -0.311838,0.18286 -0.311838,0.18286 v 0 c -0.0094,-0.0141 -0.01709,-0.0292 -0.02786,-0.0423 -0.02084,-0.0251 -0.03753,-0.0536 -0.07052,-0.0637 -0.0411,-0.0111 -0.0831,-0.007 -0.12426,0.003 -0.03189,0.009 -0.09514,0.0429 -0.07066,0.0284 0.50745,-0.29886 0.326904,-0.19996 0.225001,-0.12541 -0.173816,0.11646 -0.355037,0.22214 -0.542018,0.31611 -0.08841,0.0443 -0.176921,0.0914 -0.273285,0.11598 -0.09991,0.0164 -0.195815,-1e-4 -0.290227,-0.0364 -0.158241,-0.059 -0.310292,-0.13251 -0.460758,-0.20899 -0.152511,-0.0763 -0.306595,-0.14961 -0.463293,-0.21698 0,0 0.300832,-0.19794 0.300832,-0.19794 z"
       inkscape:connector-curvature="0" />
  </g>
</svg>
